<svg width="23" height="30" viewBox="0 0 23 30" fill="none" xmlns="http://www.w3.org/2000/svg">
<path d="M0.803978 29.1164C1.04662 29.2396 1.31905 29.2959 1.59202 29.2794C1.865 29.2629 2.12821 29.1741 2.35342 29.0227L21.8527 15.8462C22.0519 15.7114 22.2147 15.5316 22.3272 15.322C22.4397 15.1124 22.4984 14.8793 22.4984 14.6427C22.4984 14.4061 22.4397 14.1731 22.3272 13.9635C22.2147 13.7539 22.0519 13.574 21.8527 13.4393L2.35342 0.262786C2.12864 0.109726 1.86512 0.0198386 1.59159 0.00292403C1.31807 -0.0139906 1.04503 0.0427168 0.802256 0.166864C0.559481 0.29101 0.356285 0.477831 0.214819 0.706958C0.0733542 0.936085 -0.000949708 1.19872 9.16437e-06 1.46624V27.8192C-3.59553e-05 28.0865 0.0748608 28.3486 0.216582 28.5773C0.358303 28.8059 0.561441 28.9924 0.803978 29.1164ZM2.99989 4.26112L18.3638 14.6427L2.99989 25.0243V4.26112Z" fill="url(#paint0_linear)"/>
<defs>
<linearGradient id="paint0_linear" x1="11.2492" y1="0" x2="11.2492" y2="29.2822" gradientUnits="userSpaceOnUse">
<stop stop-color="#57001E"/>
<stop offset="1" stop-color="#2E1665"/>
</linearGradient>
</defs>
</svg>
