<svg width="70" height="70" viewBox="0 0 70 70" fill="none" xmlns="http://www.w3.org/2000/svg">
<g filter="url(#filter0_d)">
<circle cx="35" cy="35" r="25" fill="white"/>
</g>
<g clip-path="url(#clip0)">
<path d="M46.6945 36.0347C46.2873 35.6274 45.6289 35.6274 45.2217 36.0347L34.5 46.7563L23.7783 36.0347C23.3711 35.6274 22.7127 35.6274 22.3054 36.0347C21.8982 36.442 21.8982 37.1003 22.3054 37.5076L33.7636 48.9657C33.9667 49.1688 34.2333 49.2709 34.5 49.2709C34.7667 49.2709 35.0334 49.1688 35.2365 48.9657L46.6946 37.5076C47.1018 37.1003 47.1018 36.442 46.6945 36.0347Z" fill="black"/>
</g>
<g clip-path="url(#clip1)">
<path d="M46.6945 25.0347C46.2873 24.6274 45.6289 24.6274 45.2217 25.0347L34.5 35.7563L23.7783 25.0347C23.3711 24.6274 22.7127 24.6274 22.3054 25.0347C21.8982 25.442 21.8982 26.1003 22.3054 26.5076L33.7636 37.9657C33.9667 38.1688 34.2333 38.2709 34.5 38.2709C34.7667 38.2709 35.0334 38.1688 35.2365 37.9657L46.6946 26.5076C47.1018 26.1003 47.1018 25.442 46.6945 25.0347Z" fill="black"/>
</g>
<defs>
<filter id="filter0_d" x="0" y="0" width="70" height="70" filterUnits="userSpaceOnUse" color-interpolation-filters="sRGB">
<feFlood flood-opacity="0" result="BackgroundImageFix"/>
<feColorMatrix in="SourceAlpha" type="matrix" values="0 0 0 0 0 0 0 0 0 0 0 0 0 0 0 0 0 0 127 0"/>
<feOffset/>
<feGaussianBlur stdDeviation="5"/>
<feColorMatrix type="matrix" values="0 0 0 0 0 0 0 0 0 0 0 0 0 0 0 0 0 0 0.25 0"/>
<feBlend mode="normal" in2="BackgroundImageFix" result="effect1_dropShadow"/>
<feBlend mode="normal" in="SourceGraphic" in2="effect1_dropShadow" result="shape"/>
</filter>
<clipPath id="clip0">
<rect width="25" height="25" fill="white" transform="translate(22 30)"/>
</clipPath>
<clipPath id="clip1">
<rect width="25" height="25" fill="white" transform="translate(22 19)"/>
</clipPath>
</defs>
</svg>
