<svg width="29" height="29" viewBox="0 0 29 29" fill="none" xmlns="http://www.w3.org/2000/svg">
<path d="M26.8521 0H10.8219C9.67939 0 8.75 0.92945 8.75 2.07186V6.93466H10.6413V2.07186C10.6413 1.97232 10.7223 1.8913 10.8219 1.8913H26.8521C26.9516 1.8913 27.0326 1.97232 27.0326 2.07186V18.1021C27.0326 18.2017 26.9516 18.2827 26.8521 18.2827H22.1409V20.174H26.8521C27.9945 20.174 28.9239 19.2445 28.9239 18.1021V2.07186C28.9238 0.92945 27.9945 0 26.8521 0Z" fill="white"/>
<path d="M18.1772 8.82593H2.14712C1.00465 8.82593 0.0751953 9.75538 0.0751953 10.8979V26.928C0.0752584 28.0705 1.00465 29 2.14712 29H18.1773C19.3198 29 20.2492 28.0705 20.2492 26.9281V10.8979C20.2493 9.75538 19.3197 8.82593 18.1772 8.82593ZM18.1774 27.1087H2.14712C2.04751 27.1087 1.9665 27.0277 1.9665 26.9281V10.8979C1.9665 10.7982 2.04751 10.7172 2.14712 10.7172H18.1773C18.2769 10.7172 18.3579 10.7982 18.3579 10.8979V26.9281H18.358C18.358 27.0277 18.2769 27.1087 18.1774 27.1087Z" fill="white"/>
</svg>
