<svg width="70" height="70" viewBox="0 0 70 70" fill="none" xmlns="http://www.w3.org/2000/svg">
<g filter="url(#filter0_d)">
<circle cx="35" cy="35" r="25" fill="white"/>
</g>
<g clip-path="url(#clip0)">
<path d="M35.2129 37.7503C34.5282 37.2897 33.7965 36.9143 33.0313 36.6276C34.0492 35.7354 34.7245 34.4857 34.842 33.0866C36.3856 31.6362 38.4091 30.841 40.5782 30.841C42.2716 30.841 43.8975 31.3327 45.2805 32.2628C45.7761 32.5961 46.4575 32.4791 46.8032 32.0012C47.1486 31.5235 47.0273 30.8662 46.5319 30.5331C45.8472 30.0725 45.1154 29.6974 44.3502 29.4104C45.4734 28.426 46.1796 27.0065 46.1796 25.431C46.1796 22.4653 43.6777 20.0527 40.6021 20.0527C37.5268 20.0527 35.0249 22.4653 35.0249 25.431C35.0249 27.0001 35.7253 28.4144 36.8409 29.3985C36.6881 29.4551 36.5362 29.5151 36.3859 29.5789C35.7014 29.8694 35.058 30.2266 34.4596 30.646C33.6344 28.669 31.6253 27.2699 29.2833 27.2699C26.208 27.2699 23.7058 29.6825 23.7058 32.648C23.7058 34.2127 24.4025 35.6232 25.512 36.6068C22.5454 37.6786 20.14 39.9806 19.1608 42.9164C18.8361 43.8899 19.008 44.9223 19.6327 45.749C20.2573 46.5754 21.2237 47.0494 22.2842 47.0494H31.7987C32.4026 47.0494 32.8923 46.5773 32.8923 45.9947C32.8923 45.4124 32.4026 44.9403 31.7987 44.9403H22.2842C21.9306 44.9403 21.6085 44.7823 21.4002 44.5066C21.1919 44.231 21.1347 43.8868 21.2428 43.5622C22.3237 40.3215 25.6203 38.0582 29.2594 38.0582C30.9526 38.0582 32.5787 38.5499 33.9617 39.48C34.4571 39.8133 35.1387 39.6961 35.4844 39.2184C35.8298 38.7407 35.7085 38.0834 35.2129 37.7503V37.7503ZM40.6021 22.1619C42.4716 22.1619 43.9923 23.6284 43.9923 25.431C43.9923 27.2335 42.4716 28.7001 40.6021 28.7001C38.7329 28.7001 37.2119 27.2335 37.2119 25.431C37.2119 23.6284 38.7329 22.1619 40.6021 22.1619ZM29.2833 29.3789C31.1527 29.3789 32.6735 30.8456 32.6735 32.648C32.6735 34.4507 31.1527 35.9171 29.2833 35.9171C27.4139 35.9171 25.8931 34.4507 25.8931 32.648C25.8931 30.8456 27.4139 29.3789 29.2833 29.3789V29.3789ZM46.9999 42.0403C46.9999 42.6226 46.5103 43.0948 45.9062 43.0948H42.8988V45.9947C42.8988 46.5773 42.4092 47.0494 41.8053 47.0494C41.2011 47.0494 40.7115 46.5773 40.7115 45.9947V43.0948H37.7041C37.1002 43.0948 36.6106 42.6226 36.6106 42.0403C36.6106 41.4577 37.1002 40.9856 37.7041 40.9856H40.7115V38.0856C40.7115 37.5033 41.2011 37.0311 41.8053 37.0311C42.4092 37.0311 42.8988 37.5033 42.8988 38.0856V40.9856H45.9062C46.5103 40.9856 46.9999 41.4577 46.9999 42.0403V42.0403Z" fill="black"/>
</g>
<defs>
<filter id="filter0_d" x="0" y="0" width="70" height="70" filterUnits="userSpaceOnUse" color-interpolation-filters="sRGB">
<feFlood flood-opacity="0" result="BackgroundImageFix"/>
<feColorMatrix in="SourceAlpha" type="matrix" values="0 0 0 0 0 0 0 0 0 0 0 0 0 0 0 0 0 0 127 0"/>
<feOffset/>
<feGaussianBlur stdDeviation="5"/>
<feColorMatrix type="matrix" values="0 0 0 0 0 0 0 0 0 0 0 0 0 0 0 0 0 0 0.25 0"/>
<feBlend mode="normal" in2="BackgroundImageFix" result="effect1_dropShadow"/>
<feBlend mode="normal" in="SourceGraphic" in2="effect1_dropShadow" result="shape"/>
</filter>
<clipPath id="clip0">
<rect width="28" height="27" fill="white" transform="translate(19 20)"/>
</clipPath>
</defs>
</svg>
