<svg width="24" height="27" viewBox="0 0 24 27" fill="none" xmlns="http://www.w3.org/2000/svg">
<path d="M19.199 17.5078C17.911 17.5078 16.74 18.0122 15.877 18.8314L10.7434 15.6867C11.0364 15.0155 11.199 14.2762 11.199 13.5C11.199 12.7237 11.0364 11.9845 10.7434 11.3133L15.8769 8.16861C16.74 8.98784 17.911 9.49219 19.199 9.49219C21.8457 9.49219 23.999 7.36309 23.999 4.74609C23.999 2.1291 21.8457 0 19.199 0C16.5523 0 14.399 2.1291 14.399 4.74609C14.399 5.5187 14.5868 6.24876 14.9194 6.89407L9.90606 9.96521C8.87801 8.74262 7.32894 7.96289 5.59902 7.96289C2.51118 7.96289 -0.000976562 10.4468 -0.000976562 13.5C-0.000976562 16.5532 2.51118 19.0371 5.59902 19.0371C7.32894 19.0371 8.87801 18.2574 9.90606 17.0348L14.9194 20.1059C14.5868 20.7512 14.399 21.4813 14.399 22.2539C14.399 24.8709 16.5523 27 19.199 27C21.8457 27 23.999 24.8709 23.999 22.2539C23.999 19.6369 21.8457 17.5078 19.199 17.5078ZM19.199 1.58203C20.9635 1.58203 22.399 3.00143 22.399 4.74609C22.399 6.49076 20.9635 7.91016 19.199 7.91016C17.4345 7.91016 15.999 6.49076 15.999 4.74609C15.999 3.00143 17.4345 1.58203 19.199 1.58203ZM5.59902 17.4551C3.39342 17.4551 1.59902 15.6808 1.59902 13.5C1.59902 11.3192 3.39342 9.54492 5.59902 9.54492C7.80462 9.54492 9.59902 11.3192 9.59902 13.5C9.59902 15.6808 7.80462 17.4551 5.59902 17.4551ZM19.199 25.418C17.4345 25.418 15.999 23.9986 15.999 22.2539C15.999 20.5092 17.4345 19.0898 19.199 19.0898C20.9635 19.0898 22.399 20.5092 22.399 22.2539C22.399 23.9986 20.9635 25.418 19.199 25.418Z" fill="url(#paint0_linear)"/>
<defs>
<linearGradient id="paint0_linear" x1="11.999" y1="0" x2="11.999" y2="27" gradientUnits="userSpaceOnUse">
<stop stop-color="#2E1665"/>
<stop offset="1" stop-color="#50001E"/>
</linearGradient>
</defs>
</svg>
