<svg width="70" height="70" viewBox="0 0 70 70" fill="none" xmlns="http://www.w3.org/2000/svg">
<g filter="url(#filter0_d)">
<circle cx="35" cy="35" r="25" fill="white"/>
</g>
<path d="M40.2 38.5078C38.912 38.5078 37.741 39.0122 36.878 39.8314L31.7444 36.6867C32.0373 36.0155 32.2 35.2763 32.2 34.5C32.2 33.7238 32.0373 32.9845 31.7444 32.3133L36.8779 29.1686C37.741 29.9878 38.912 30.4922 40.2 30.4922C42.8467 30.4922 45 28.3631 45 25.7461C45 23.1291 42.8467 21 40.2 21C37.5533 21 35.4 23.1291 35.4 25.7461C35.4 26.5187 35.5878 27.2488 35.9204 27.8941L30.907 30.9652C29.879 29.7426 28.3299 28.9629 26.6 28.9629C23.5122 28.9629 21 31.4468 21 34.5C21 37.5532 23.5122 40.0371 26.6 40.0371C28.3299 40.0371 29.879 39.2574 30.907 38.0348L35.9204 41.1059C35.5878 41.7512 35.4 42.4813 35.4 43.2539C35.4 45.8709 37.5533 48 40.2 48C42.8467 48 45 45.8709 45 43.2539C45 40.6369 42.8467 38.5078 40.2 38.5078ZM40.2 22.582C41.9645 22.582 43.4 24.0014 43.4 25.7461C43.4 27.4908 41.9645 28.9102 40.2 28.9102C38.4355 28.9102 37 27.4908 37 25.7461C37 24.0014 38.4355 22.582 40.2 22.582ZM26.6 38.4551C24.3944 38.4551 22.6 36.6808 22.6 34.5C22.6 32.3192 24.3944 30.5449 26.6 30.5449C28.8056 30.5449 30.6 32.3192 30.6 34.5C30.6 36.6808 28.8056 38.4551 26.6 38.4551ZM40.2 46.418C38.4355 46.418 37 44.9986 37 43.2539C37 41.5092 38.4355 40.0898 40.2 40.0898C41.9645 40.0898 43.4 41.5092 43.4 43.2539C43.4 44.9986 41.9645 46.418 40.2 46.418Z" fill="black"/>
<defs>
<filter id="filter0_d" x="0" y="0" width="70" height="70" filterUnits="userSpaceOnUse" color-interpolation-filters="sRGB">
<feFlood flood-opacity="0" result="BackgroundImageFix"/>
<feColorMatrix in="SourceAlpha" type="matrix" values="0 0 0 0 0 0 0 0 0 0 0 0 0 0 0 0 0 0 127 0"/>
<feOffset/>
<feGaussianBlur stdDeviation="5"/>
<feColorMatrix type="matrix" values="0 0 0 0 0 0 0 0 0 0 0 0 0 0 0 0 0 0 0.25 0"/>
<feBlend mode="normal" in2="BackgroundImageFix" result="effect1_dropShadow"/>
<feBlend mode="normal" in="SourceGraphic" in2="effect1_dropShadow" result="shape"/>
</filter>
</defs>
</svg>
