<svg width="28" height="28" viewBox="0 0 28 28" fill="none" xmlns="http://www.w3.org/2000/svg">
<path d="M14.0002 5.11251L16.5877 10.3438L17.0189 11.2813L17.9564 11.4219L23.7314 12.2563L19.6252 16.2875L18.9221 16.9719L19.0908 17.9094L20.0752 23.6563L14.9096 20.9469L14.0002 20.5625L13.1283 21.0219L7.9627 23.6938L8.9002 17.9469L9.06895 17.0094L8.3752 16.2875L4.23145 12.2094L10.0064 11.375L10.9439 11.2344L11.3752 10.2969L14.0002 5.11251ZM14.0002 0.875008L9.73457 9.51876L0.200195 10.8969L7.1002 17.6281L5.46895 27.125L14.0002 22.6438L22.5314 27.125L20.9002 17.6281L27.8002 10.9063L18.2658 9.51876L14.0002 0.875008Z" fill="url(#paint0_linear)"/>
<defs>
<linearGradient id="paint0_linear" x1="14.0002" y1="0.875008" x2="14.0002" y2="27.125" gradientUnits="userSpaceOnUse">
<stop stop-color="#2E1665"/>
<stop offset="1" stop-color="#57001E"/>
</linearGradient>
</defs>
</svg>
