<svg width="32" height="32" viewBox="0 0 32 32" fill="none" xmlns="http://www.w3.org/2000/svg">
<path d="M7.21106 17.1634C7.48319 16.7054 7.6285 16.1812 7.6285 15.6363C7.6285 13.9831 6.2835 12.6381 4.63025 12.6381C2.977 12.6381 1.632 13.9831 1.632 15.6363C1.632 16.1865 1.77981 16.715 2.0565 17.1757C0.724 17.723 0 18.7154 0 20.0218V20.7834C0 21.0428 0.210312 21.2531 0.469687 21.2531C0.729062 21.2531 0.939375 21.0428 0.939375 20.7834V20.0218C0.939375 18.9504 1.61644 18.2244 2.95169 17.864C3.11294 17.8204 3.23894 17.6946 3.28262 17.5334C3.32631 17.3722 3.28113 17.1999 3.16388 17.0809C2.78188 16.6932 2.5715 16.1802 2.5715 15.6363C2.5715 14.5011 3.49512 13.5774 4.63037 13.5774C5.76562 13.5774 6.68925 14.5011 6.68925 15.6363C6.68925 16.1766 6.48106 16.6874 6.10294 17.0744C5.98619 17.1939 5.94175 17.3666 5.98619 17.5276C6.03062 17.6887 6.15737 17.814 6.31887 17.8567C7.672 18.2143 8.35806 18.9428 8.35806 20.0218V23.3888C8.35806 23.6887 8.11406 23.9327 7.81413 23.9327C7.51419 23.9327 7.27019 23.6887 7.27019 23.3888V21.7228V20.348C7.27019 20.0886 7.05987 19.8783 6.8005 19.8783C6.54112 19.8783 6.33081 20.0886 6.33081 20.348V21.2531H2.96656V20.348C2.96656 20.0886 2.75625 19.8783 2.49688 19.8783C2.2375 19.8783 2.02719 20.0886 2.02719 20.348V21.7228V23.3888C2.02719 23.6887 1.78319 23.9327 1.48325 23.9327C1.18331 23.9327 0.939313 23.6887 0.939313 23.3888V22.6621C0.939313 22.4027 0.729 22.1924 0.469625 22.1924C0.21025 22.1924 0 22.4028 0 22.6621V23.3888C0 24.2067 0.665375 24.8721 1.48325 24.8721C1.67519 24.8721 1.85869 24.8354 2.02719 24.7688V27.9401C2.02719 28.7923 2.72056 29.4857 3.57275 29.4857C3.99056 29.4857 4.37019 29.3191 4.64869 29.0487C4.92712 29.3191 5.30675 29.4857 5.72456 29.4857C6.57681 29.4857 7.27012 28.7923 7.27012 27.9401V24.7688C7.43862 24.8354 7.62213 24.8721 7.81406 24.8721C8.63194 24.8721 9.29731 24.2067 9.29731 23.3888V20.0218C9.29738 18.7049 8.56281 17.7082 7.21106 17.1634V17.1634ZM6.33087 22.1924V22.9223C5.59269 23.6823 4.91156 24.026 4.64875 24.026C4.38587 24.026 3.70469 23.6823 2.96662 22.9223V22.1924H6.33087ZM3.57275 28.5464C3.2385 28.5464 2.9665 28.2745 2.9665 27.9402V24.1871C3.323 24.4724 3.75256 24.7549 4.179 24.8873V27.9402C4.17906 28.2744 3.90706 28.5464 3.57275 28.5464V28.5464ZM5.72456 28.5464C5.39031 28.5464 5.11831 28.2745 5.11831 27.9402V24.8873C5.54475 24.7549 5.97431 24.4724 6.33081 24.1871V27.9402C6.33087 28.2744 6.05888 28.5464 5.72456 28.5464V28.5464Z" fill="white"/>
<path d="M18.32 11.9984C18.6355 11.4883 18.8044 10.8995 18.8044 10.2866C18.8044 8.48707 17.3403 7.02295 15.5407 7.02295C13.7411 7.02295 12.277 8.48701 12.277 10.2866C12.277 10.9052 12.4487 11.4986 12.7693 12.0115C11.2823 12.6039 10.4736 13.6935 10.4736 15.1324V21.1073C10.4736 21.9839 11.1868 22.6969 12.0633 22.6969C12.2949 22.6969 12.5151 22.6472 12.7137 22.5578V27.8272C12.7137 28.7417 13.4577 29.4857 14.3722 29.4857C14.8379 29.4857 15.2595 29.2927 15.561 28.9825C15.8626 29.2927 16.2841 29.4857 16.7499 29.4857C17.6644 29.4857 18.4084 28.7417 18.4084 27.8272V26.2179C18.4084 25.9585 18.1981 25.7482 17.9387 25.7482C17.6793 25.7482 17.469 25.9585 17.469 26.2179V27.8272C17.469 28.2238 17.1464 28.5464 16.7498 28.5464C16.3533 28.5464 16.0306 28.2238 16.0306 27.8272V21.2031C16.0306 20.9437 15.8203 20.7334 15.5609 20.7334C15.3016 20.7334 15.0913 20.9437 15.0913 21.2031V27.8272C15.0913 28.2238 14.7686 28.5464 14.3721 28.5464C13.9755 28.5464 13.6529 28.2238 13.6529 27.8272V15.4928C13.6529 15.2334 13.4426 15.0231 13.1832 15.0231C12.9238 15.0231 12.7135 15.2334 12.7135 15.4928V21.1073C12.7135 21.4658 12.4218 21.7576 12.0631 21.7576C11.7045 21.7576 11.4128 21.4658 11.4128 21.1073V15.1324C11.4128 13.9234 12.1731 13.1052 13.6728 12.7006C13.834 12.657 13.96 12.5312 14.0037 12.3699C14.0474 12.2088 14.0022 12.0364 13.8849 11.9175C13.4536 11.4798 13.2161 10.9006 13.2161 10.2866C13.2161 9.00501 14.2588 7.96232 15.5404 7.96232C16.8221 7.96232 17.8648 9.00501 17.8648 10.2866C17.8648 10.8966 17.6297 11.4732 17.2029 11.9102C17.0861 12.0298 17.0416 12.2023 17.0861 12.3634C17.1306 12.5244 17.2573 12.6498 17.4189 12.6924C18.9384 13.094 19.7088 13.9149 19.7088 15.1324V21.1073C19.7088 21.4659 19.4171 21.7576 19.0584 21.7576C18.6998 21.7576 18.4081 21.4659 18.4081 21.1073V15.4929C18.4081 15.2335 18.1978 15.0232 17.9384 15.0232C17.679 15.0232 17.4687 15.2335 17.4687 15.4929V24.3393C17.4687 24.5986 17.679 24.8089 17.9384 24.8089C18.1978 24.8089 18.4081 24.5987 18.4081 24.3393V22.5578C18.6067 22.6472 18.8269 22.697 19.0584 22.697C19.935 22.697 20.6481 21.9839 20.6481 21.1074V15.1324C20.6484 13.6822 19.8279 12.5879 18.32 11.9984V11.9984Z" fill="white"/>
<path d="M29.6717 7.48966C29.9872 6.97954 30.1561 6.39072 30.1561 5.77785C30.1561 3.97822 28.692 2.51416 26.8924 2.51416C25.0928 2.51416 23.6288 3.97822 23.6288 5.77785C23.6288 6.39641 23.8004 6.98985 24.121 7.50272C22.6341 8.09516 21.8254 9.18472 21.8254 10.6237V13.4304C21.8254 13.6898 22.0356 13.9001 22.2951 13.9001C22.5545 13.9001 22.7648 13.6898 22.7648 13.4304V10.6237C22.7648 9.41466 23.5251 8.59641 25.0248 8.19179C25.186 8.14822 25.312 8.02241 25.3557 7.86116C25.3994 7.69997 25.3541 7.52766 25.2369 7.40872C24.8057 6.97097 24.5681 6.39179 24.5681 5.77785C24.5681 4.49622 25.6108 3.45354 26.8924 3.45354C28.1741 3.45354 29.2168 4.49622 29.2168 5.77785C29.2168 6.38785 28.9817 6.96441 28.5549 7.40141C28.4381 7.52097 28.3937 7.69354 28.4381 7.8546C28.4826 8.01566 28.6093 8.14097 28.7709 8.18366C30.2904 8.58522 31.0608 9.4061 31.0608 10.6237V18.853C31.0608 19.2115 30.7691 19.5033 30.4104 19.5033C30.0519 19.5033 29.7601 19.2115 29.7601 18.853V10.9841C29.7601 10.7247 29.5498 10.5144 29.2904 10.5144C29.0311 10.5144 28.8208 10.7247 28.8208 10.9841V27.8273C28.8208 28.2239 28.4981 28.5465 28.1016 28.5465C27.705 28.5465 27.3824 28.2239 27.3824 27.8273V18.9487C27.3824 18.6893 27.1721 18.479 26.9127 18.479C26.6533 18.479 26.443 18.6893 26.443 18.9487V27.8273C26.443 28.2239 26.1204 28.5465 25.7238 28.5465C25.3273 28.5465 25.0046 28.2239 25.0046 27.8273V10.9841C25.0046 10.7247 24.7943 10.5144 24.5349 10.5144C24.2756 10.5144 24.0653 10.7247 24.0653 10.9841V18.853C24.0653 19.2115 23.7735 19.5033 23.4149 19.5033C23.0563 19.5033 22.7646 19.2115 22.7646 18.853V15.3091C22.7646 15.0497 22.5543 14.8394 22.2949 14.8394C22.0354 14.8394 21.8252 15.0497 21.8252 15.3091V18.853C21.8252 19.7295 22.5383 20.4427 23.4149 20.4427C23.6464 20.4427 23.8666 20.3928 24.0652 20.3035V27.8273C24.0652 28.7418 24.8092 29.4858 25.7237 29.4858C26.1895 29.4858 26.611 29.2928 26.9126 28.9826C27.2141 29.2929 27.6356 29.4858 28.1014 29.4858C29.0159 29.4858 29.7599 28.7418 29.7599 27.8273V20.3035C29.9586 20.3928 30.1788 20.4427 30.4103 20.4427C31.2868 20.4427 31.9999 19.7295 31.9999 18.853V10.6237C32.0001 9.17341 31.1796 8.07916 29.6717 7.48966V7.48966Z" fill="white"/>
</svg>
