<svg width="32" height="34" viewBox="0 0 32 34" fill="none" xmlns="http://www.w3.org/2000/svg">
<path d="M16 7.4375L17.912 11.3337L22 11.8713L19 14.7964L19.6 19.125L16 16.6898L12.4 19.125L13 14.7964L10 11.8713L14.2 11.3337L16 7.4375Z" fill="white"/>
<path d="M16 31.875L7.56401 21.3042C7.44679 21.1455 7.33079 20.9857 7.21601 20.825C5.77499 18.8081 4.99652 16.3447 5.00001 13.8125C5.00001 10.7128 6.15894 7.74002 8.22184 5.54819C10.2847 3.35636 13.0826 2.125 16 2.125C18.9174 2.125 21.7153 3.35636 23.7782 5.54819C25.8411 7.74002 27 10.7128 27 13.8125C27.0035 16.3435 26.2254 18.8059 24.785 20.8218L24.784 20.825C24.784 20.825 24.484 21.2436 24.439 21.2999L16 31.875ZM8.81201 19.5447C8.81401 19.5447 9.04601 19.8719 9.09901 19.9421L16 28.5898L22.91 19.9304C22.954 19.8719 23.188 19.5426 23.189 19.5415C24.3662 17.8937 25.0023 15.8812 25 13.8125C25 11.2764 24.0518 8.84411 22.364 7.05079C20.6761 5.25747 18.387 4.25 16 4.25C13.6131 4.25 11.3239 5.25747 9.63605 7.05079C7.94822 8.84411 7.00001 11.2764 7.00001 13.8125C6.99791 15.8825 7.63479 17.8961 8.81301 19.5447H8.81201Z" fill="white"/>
</svg>
