<svg width="28" height="26" viewBox="0 0 28 26" fill="none" xmlns="http://www.w3.org/2000/svg">
<path d="M4.0756 25.327H2.09161L3.49453 23.9241C4.25098 23.1677 4.72335 22.1838 4.85034 21.1165C2.87643 19.8211 1.43302 18.1169 0.660358 16.1624C-0.111752 14.2094 -0.20878 12.0595 0.379795 9.94509C1.086 7.40797 2.74237 5.09547 5.04369 3.43352C7.54448 1.62758 10.6577 0.672974 14.0468 0.672974C18.3162 0.672974 21.9148 1.89959 24.4534 4.22014C26.7405 6.31075 28 9.13069 28 12.1606C28 13.6326 27.7003 15.0649 27.1092 16.4177C26.4975 17.8175 25.6018 19.064 24.4469 20.1223C21.9049 22.452 18.3085 23.6834 14.0467 23.6834C12.4647 23.6834 10.8138 23.4722 9.33985 23.0847C7.9447 24.5159 6.05417 25.327 4.0756 25.327ZM14.0468 2.31658C7.2511 2.31658 3.08122 6.36932 1.96319 10.3859C0.90668 14.1815 2.4641 17.768 6.12934 19.9798L6.53887 20.227L6.52627 20.7051C6.50129 21.6515 6.27568 22.563 5.87184 23.387C6.85521 23.0543 7.74752 22.4511 8.44627 21.6256L8.79373 21.2151L9.309 21.3692C10.755 21.8017 12.4375 22.0398 14.0468 22.0398C22.5044 22.0398 26.3564 16.9187 26.3564 12.1606C26.3564 9.59785 25.2868 7.20871 23.3444 5.43329C21.1139 3.39434 17.8988 2.31658 14.0468 2.31658Z" fill="white"/>
</svg>
