<svg width="30" height="30" viewBox="0 0 30 30" fill="none" xmlns="http://www.w3.org/2000/svg">
<g clip-path="url(#clip0)">
<path d="M30 30L29.991 14.9646C29.991 6.69601 23.2794 -0.00299072 15.0108 -0.00299072C6.74218 -0.00299072 0.0305786 6.70081 0.0305786 14.97L0.151179 30.021L3.59998 30.0126V14.9706C3.59998 8.52601 8.55718 3.30241 15 3.30241C21.444 3.30241 26.4 8.52661 26.4 14.9712V30H30ZM19.9182 24.5556L19.863 24.4548L19.8918 24.4176L19.9182 24.3804C20.4342 24.1674 20.9028 23.9064 21.3216 23.5944C21.7404 23.2812 21.9852 22.8228 22.1304 22.2168C22.1466 22.1466 22.2 21.9834 22.2 21.7344V9.22261C22.2064 8.89637 22.1262 8.57425 21.9678 8.28901C21.7902 7.96501 21.5856 7.67521 21.3138 7.41781C21.0504 7.16281 20.7612 6.98521 20.4306 6.81421C20.1006 6.64501 19.7922 6.60001 19.488 6.60001H10.5348C10.2492 6.60001 9.94198 6.64021 9.61078 6.80101C9.28018 6.96121 8.97598 7.14721 8.70118 7.39801C8.43858 7.63703 8.2165 7.91707 8.04358 8.22721C7.88254 8.50581 7.79847 8.82222 7.79998 9.14401V21.8424C7.79998 22.0542 7.83238 22.2792 7.93678 22.5084C8.04418 22.7418 8.16538 22.9596 8.32558 23.1612C8.48638 23.37 8.65498 23.5578 8.84278 23.7258C9.02998 23.895 9.20758 24.033 9.38758 24.1386C9.47458 24.1752 9.62938 24.231 9.85378 24.3012C10.0752 24.3726 10.1772 24.4152 10.1604 24.4488L6.49738 30H8.63398L11.3088 26.4H18.69L21.3612 30H23.5248L19.9182 24.5556ZM12 7.80001C12 7.47001 12.27 7.20001 12.6 7.20001H17.4C17.73 7.20001 18 7.47001 18 7.80001V8.40001C18 8.73001 17.73 9.00001 17.4 9.00001H12.6C12.27 9.00001 12 8.73001 12 8.40001V7.80001ZM9.63838 10.731C9.71818 10.5618 9.78058 10.4082 9.90478 10.2636C10.0314 10.1208 10.158 9.91561 10.3266 9.82621C10.4952 9.73621 10.6506 9.60001 10.8288 9.60001H19.143C19.3032 9.60001 19.4622 9.72901 19.6236 9.79681C19.7844 9.86881 19.9308 10.0146 20.0658 10.1382C20.199 10.2624 20.2518 10.4214 20.3346 10.5636C20.4132 10.7028 20.4 10.8792 20.4 11.0394V13.8738C20.4 14.0358 20.4078 14.1864 20.3202 14.3388C20.2314 14.4948 20.1414 14.6292 19.9974 14.745C19.854 14.8584 19.7178 14.8878 19.5576 14.9568C19.3968 15.0324 19.2492 15 19.0908 15H10.8822C10.8624 15 10.818 15.0558 10.7472 15.0414L10.5852 15.018C10.2834 14.9652 10.098 14.8206 9.86518 14.553C9.63418 14.2836 9.59998 14.0088 9.59998 13.6872V11.2548C9.59998 11.0766 9.55918 10.9014 9.63838 10.731ZM11.9106 22.296C11.6352 22.581 11.2902 22.7232 10.8822 22.7232C10.4724 22.7232 10.1376 22.581 9.87838 22.296C9.61918 22.0116 9.49078 21.6612 9.49078 21.2526C9.49078 20.8782 9.62578 20.5536 9.89218 20.2782C10.0189 20.1434 10.1725 20.0368 10.343 19.9651C10.5136 19.8935 10.6972 19.8585 10.8822 19.8624C11.2902 19.8624 11.6346 19.9938 11.9106 20.2482C12.1872 20.511 12.3258 20.8494 12.3258 21.2808C12.3258 21.6732 12.1872 22.0122 11.9106 22.296ZM18.0324 22.296C17.7576 22.0116 17.619 21.6612 17.619 21.2526C17.619 20.841 17.7648 20.5104 18.0594 20.2476C18.3438 19.9957 18.7115 19.8583 19.0914 19.8618C19.4982 19.8618 19.833 20.0004 20.091 20.2776C20.3508 20.553 20.4804 20.8776 20.4804 21.252C20.4804 21.6612 20.3478 22.0116 20.0778 22.2954C19.8114 22.5804 19.4724 22.7226 19.062 22.7226C18.6522 22.7232 18.3102 22.581 18.0324 22.296Z" fill="black"/>
</g>
<defs>
<clipPath id="clip0">
<rect width="30" height="30" fill="white"/>
</clipPath>
</defs>
</svg>
