<svg width="22" height="23" viewBox="0 0 22 23" fill="none" xmlns="http://www.w3.org/2000/svg">
<path d="M18.7773 12.0459H16.6238C16.3307 12.0459 16.047 12.0878 15.7769 12.1648C15.2442 11.0699 14.1566 10.3177 12.9033 10.3177H9.0967C7.84343 10.3177 6.7558 11.0699 6.22308 12.1648C5.95302 12.0878 5.66925 12.0459 5.37616 12.0459H3.22266C1.44568 12.0459 0 13.5573 0 15.415V19.0141C0 20.1287 0.86741 21.0356 1.93359 21.0356H20.0664C21.1326 21.0356 22 20.1287 22 19.0141V15.415C22 13.5573 20.5543 12.0459 18.7773 12.0459ZM5.87404 13.6869V19.688H1.93359C1.5782 19.688 1.28906 19.3857 1.28906 19.0141V15.4151C1.28906 14.3004 2.15647 13.3936 3.22266 13.3936H5.37616C5.55113 13.3936 5.72056 13.4184 5.88186 13.4642C5.87722 13.5379 5.87404 13.612 5.87404 13.6869ZM14.8369 19.688H7.16311V13.6868C7.16311 12.5722 8.03052 11.6654 9.0967 11.6654H12.9033C13.9695 11.6654 14.8369 12.5722 14.8369 13.6868V19.688ZM20.7109 19.0141C20.7109 19.3857 20.4218 19.688 20.0664 19.688H16.126V13.6868C16.126 13.612 16.1228 13.5378 16.1181 13.4642C16.2794 13.4184 16.4489 13.3935 16.6238 13.3935H18.7773C19.8435 13.3935 20.7109 14.3004 20.7109 15.415V19.0141Z" fill="black"/>
<path d="M4.29924 5.6828C2.72018 5.6828 1.43555 7.02583 1.43555 8.67666C1.4355 10.3275 2.72018 11.6705 4.29924 11.6705C5.87826 11.6705 7.16294 10.3275 7.16294 8.67666C7.16294 7.02583 5.8783 5.6828 4.29924 5.6828ZM4.2992 10.3229C3.43093 10.3229 2.72457 9.5844 2.72457 8.67666C2.72457 7.76893 3.43093 7.03046 4.2992 7.03046C5.16747 7.03046 5.87383 7.76893 5.87383 8.67666C5.87383 9.5844 5.16747 10.3229 4.2992 10.3229Z" fill="black"/>
<path d="M10.9997 1.96439C8.89009 1.96439 7.17383 3.75866 7.17383 5.96414C7.17383 8.16962 8.89009 9.96389 10.9997 9.96389C13.1093 9.96389 14.8255 8.16962 14.8255 5.96414C14.8255 3.7587 13.1093 1.96439 10.9997 1.96439ZM10.9997 8.61624C9.60088 8.61624 8.46289 7.42653 8.46289 5.96414C8.46289 4.5018 9.60088 3.31204 10.9997 3.31204C12.3985 3.31204 13.5365 4.50175 13.5365 5.96414C13.5365 7.42653 12.3985 8.61624 10.9997 8.61624Z" fill="black"/>
<path d="M17.7006 5.6828C16.1216 5.6828 14.8369 7.02583 14.8369 8.67666C14.837 10.3275 16.1216 11.6705 17.7006 11.6705C19.2797 11.6705 20.5643 10.3275 20.5643 8.67666C20.5643 7.02583 19.2797 5.6828 17.7006 5.6828ZM17.7006 10.3229C16.8324 10.3229 16.126 9.5844 16.126 8.67666C16.126 7.76893 16.8324 7.03046 17.7006 7.03046C18.5689 7.03046 19.2752 7.76893 19.2752 8.67666C19.2752 9.5844 18.5689 10.3229 17.7006 10.3229Z" fill="black"/>
</svg>
