<svg width="32" height="28" viewBox="0 0 32 28" fill="none" xmlns="http://www.w3.org/2000/svg">
<path d="M7.21106 15.1635C7.48319 14.7055 7.6285 14.1812 7.6285 13.6364C7.6285 11.9831 6.2835 10.6381 4.63025 10.6381C2.977 10.6381 1.632 11.9831 1.632 13.6364C1.632 14.1866 1.77981 14.7151 2.0565 15.1757C0.724 15.7231 0 16.7154 0 18.0219V18.7835C0 19.0429 0.210312 19.2532 0.469687 19.2532C0.729062 19.2532 0.939375 19.0429 0.939375 18.7835V18.0219C0.939375 16.9504 1.61644 16.2244 2.95169 15.8641C3.11294 15.8205 3.23894 15.6946 3.28262 15.5334C3.32631 15.3722 3.28113 15.1999 3.16388 15.081C2.78188 14.6932 2.5715 14.1802 2.5715 13.6364C2.5715 12.5011 3.49512 11.5775 4.63037 11.5775C5.76562 11.5775 6.68925 12.5011 6.68925 13.6364C6.68925 14.1767 6.48106 14.6875 6.10294 15.0745C5.98619 15.194 5.94175 15.3666 5.98619 15.5277C6.03062 15.6887 6.15737 15.8141 6.31887 15.8567C7.672 16.2144 8.35806 16.9428 8.35806 18.0218V21.3888C8.35806 21.6888 8.11406 21.9328 7.81413 21.9328C7.51419 21.9328 7.27019 21.6888 7.27019 21.3888V19.7228V18.3481C7.27019 18.0887 7.05988 17.8784 6.8005 17.8784C6.54112 17.8784 6.33081 18.0887 6.33081 18.3481V19.2531H2.96656V18.3481C2.96656 18.0887 2.75625 17.8784 2.49688 17.8784C2.2375 17.8784 2.02719 18.0887 2.02719 18.3481V19.7228V21.3888C2.02719 21.6888 1.78319 21.9328 1.48325 21.9328C1.18331 21.9328 0.939313 21.6888 0.939313 21.3888V20.6621C0.939313 20.4027 0.729 20.1924 0.469625 20.1924C0.21025 20.1924 0 20.4028 0 20.6622V21.3889C0 22.2067 0.665375 22.8721 1.48325 22.8721C1.67519 22.8721 1.85869 22.8355 2.02719 22.7688V25.9402C2.02719 26.7924 2.72056 27.4858 3.57275 27.4858C3.99056 27.4858 4.37019 27.3191 4.64869 27.0488C4.92712 27.3191 5.30675 27.4858 5.72456 27.4858C6.57681 27.4858 7.27012 26.7924 7.27012 25.9402V22.7688C7.43862 22.8354 7.62213 22.8721 7.81406 22.8721C8.63194 22.8721 9.29731 22.2067 9.29731 21.3889V18.0219C9.29738 16.705 8.56281 15.7082 7.21106 15.1635ZM6.33087 20.1925V20.9224C5.59269 21.6824 4.91156 22.0261 4.64875 22.0261C4.38587 22.0261 3.70469 21.6823 2.96662 20.9224V20.1925H6.33087ZM3.57275 26.5465C3.2385 26.5465 2.9665 26.2746 2.9665 25.9403V22.1871C3.323 22.4724 3.75256 22.755 4.179 22.8874V25.9403C4.17906 26.2745 3.90706 26.5465 3.57275 26.5465ZM5.72456 26.5465C5.39031 26.5465 5.11831 26.2746 5.11831 25.9403V22.8874C5.54475 22.755 5.97431 22.4724 6.33081 22.1871V25.9403C6.33087 26.2745 6.05888 26.5465 5.72456 26.5465Z" fill="black"/>
<path d="M18.32 9.99848C18.6355 9.48835 18.8044 8.89954 18.8044 8.28667C18.8044 6.48711 17.3403 5.02298 15.5407 5.02298C13.7411 5.02298 12.277 6.48704 12.277 8.28667C12.277 8.90523 12.4487 9.49867 12.7693 10.0115C11.2823 10.604 10.4736 11.6935 10.4736 13.1325V19.1074C10.4736 19.9839 11.1868 20.697 12.0633 20.697C12.2949 20.697 12.5151 20.6472 12.7137 20.5578V25.8272C12.7137 26.7417 13.4577 27.4857 14.3722 27.4857C14.8379 27.4857 15.2595 27.2927 15.561 26.9825C15.8626 27.2927 16.2841 27.4857 16.7499 27.4857C17.6644 27.4857 18.4084 26.7417 18.4084 25.8272V24.2179C18.4084 23.9585 18.1981 23.7482 17.9387 23.7482C17.6793 23.7482 17.469 23.9585 17.469 24.2179V25.8272C17.469 26.2238 17.1464 26.5464 16.7498 26.5464C16.3533 26.5464 16.0306 26.2238 16.0306 25.8272V19.2031C16.0306 18.9437 15.8203 18.7334 15.5609 18.7334C15.3016 18.7334 15.0913 18.9437 15.0913 19.2031V25.8272C15.0913 26.2238 14.7686 26.5464 14.3721 26.5464C13.9755 26.5464 13.6529 26.2238 13.6529 25.8272V13.4929C13.6529 13.2335 13.4426 13.0232 13.1832 13.0232C12.9238 13.0232 12.7135 13.2335 12.7135 13.4929V19.1073C12.7135 19.4659 12.4218 19.7576 12.0631 19.7576C11.7045 19.7576 11.4128 19.4659 11.4128 19.1073V13.1325C11.4128 11.9235 12.1731 11.1052 13.6728 10.7006C13.834 10.657 13.96 10.5312 14.0037 10.37C14.0474 10.2088 14.0022 10.0365 13.8849 9.91754C13.4536 9.47979 13.2161 8.90061 13.2161 8.28667C13.2161 7.00504 14.2588 5.96236 15.5404 5.96236C16.8221 5.96236 17.8648 7.00504 17.8648 8.28667C17.8648 8.89667 17.6297 9.47323 17.2029 9.91023C17.0861 10.0298 17.0416 10.2024 17.0861 10.3634C17.1306 10.5245 17.2573 10.6498 17.4189 10.6925C18.9384 11.094 19.7088 11.9149 19.7088 13.1325V19.1074C19.7088 19.4659 19.4171 19.7577 19.0584 19.7577C18.6998 19.7577 18.4081 19.4659 18.4081 19.1074V13.4929C18.4081 13.2335 18.1978 13.0232 17.9384 13.0232C17.679 13.0232 17.4687 13.2335 17.4687 13.4929V22.3393C17.4687 22.5987 17.679 22.809 17.9384 22.809C18.1978 22.809 18.4081 22.5987 18.4081 22.3393V20.5579C18.6067 20.6472 18.8269 20.697 19.0584 20.697C19.935 20.697 20.6481 19.9839 20.6481 19.1074V13.1325C20.6484 11.6822 19.8279 10.588 18.32 9.99848Z" fill="black"/>
<path d="M29.6717 5.48969C29.9872 4.97957 30.1561 4.39075 30.1561 3.77788C30.1561 1.97825 28.692 0.514191 26.8924 0.514191C25.0928 0.514191 23.6288 1.97825 23.6288 3.77788C23.6288 4.39644 23.8004 4.98988 24.121 5.50275C22.6341 6.09519 21.8254 7.18475 21.8254 8.62369V11.4304C21.8254 11.6898 22.0356 11.9001 22.2951 11.9001C22.5545 11.9001 22.7648 11.6898 22.7648 11.4304V8.62369C22.7648 7.41469 23.5251 6.59644 25.0248 6.19182C25.186 6.14825 25.312 6.02244 25.3557 5.86119C25.3994 5.7 25.3541 5.52769 25.2369 5.40875C24.8057 4.971 24.5681 4.39182 24.5681 3.77788C24.5681 2.49625 25.6108 1.45357 26.8924 1.45357C28.1741 1.45357 29.2168 2.49625 29.2168 3.77788C29.2168 4.38788 28.9817 4.96444 28.5549 5.40144C28.4381 5.521 28.3937 5.69357 28.4381 5.85463C28.4826 6.01569 28.6093 6.141 28.7709 6.18369C30.2904 6.58525 31.0608 7.40613 31.0608 8.62369V16.853C31.0608 17.2116 30.7691 17.5033 30.4104 17.5033C30.0519 17.5033 29.7601 17.2116 29.7601 16.853V8.98413C29.7601 8.72475 29.5498 8.51444 29.2904 8.51444C29.0311 8.51444 28.8208 8.72475 28.8208 8.98413V25.8273C28.8208 26.2239 28.4981 26.5465 28.1016 26.5465C27.705 26.5465 27.3824 26.2239 27.3824 25.8273V16.9488C27.3824 16.6894 27.1721 16.4791 26.9127 16.4791C26.6533 16.4791 26.443 16.6893 26.443 16.9488V25.8273C26.443 26.2239 26.1204 26.5465 25.7238 26.5465C25.3273 26.5465 25.0046 26.2239 25.0046 25.8273V8.98413C25.0046 8.72475 24.7943 8.51444 24.5349 8.51444C24.2756 8.51444 24.0653 8.72475 24.0653 8.98413V16.853C24.0653 17.2116 23.7735 17.5033 23.4149 17.5033C23.0563 17.5033 22.7646 17.2116 22.7646 16.853V13.3091C22.7646 13.0498 22.5543 12.8394 22.2949 12.8394C22.0354 12.8394 21.8252 13.0498 21.8252 13.3091V16.853C21.8252 17.7296 22.5383 18.4427 23.4149 18.4427C23.6464 18.4427 23.8666 18.3929 24.0652 18.3035V25.8273C24.0652 26.7418 24.8092 27.4858 25.7237 27.4858C26.1895 27.4858 26.611 27.2928 26.9126 26.9826C27.2141 27.2929 27.6356 27.4858 28.1014 27.4858C29.0159 27.4858 29.7599 26.7418 29.7599 25.8273V18.3035C29.9586 18.3929 30.1788 18.4427 30.4103 18.4427C31.2868 18.4427 31.9999 17.7296 31.9999 16.853V8.62369C32.0001 7.17344 31.1796 6.07919 29.6717 5.48969Z" fill="black"/>
</svg>
