<svg width="70" height="70" viewBox="0 0 70 70" fill="none" xmlns="http://www.w3.org/2000/svg">
<g filter="url(#filter0_d)">
<circle cx="35" cy="35" r="25" transform="rotate(-180 35 35)" fill="white"/>
</g>
<path d="M31.6641 43.898C31.8133 43.9738 31.9807 44.0084 32.1485 43.9983C32.3163 43.9881 32.4782 43.9336 32.6166 43.8404L44.6029 35.7408C44.7254 35.6579 44.8255 35.5474 44.8946 35.4185C44.9638 35.2897 44.9999 35.1464 44.9999 35.001C44.9999 34.8556 44.9638 34.7123 44.8946 34.5834C44.8255 34.4546 44.7254 34.344 44.6029 34.2612L32.6166 26.1615C32.4784 26.0674 32.3164 26.0122 32.1483 26.0018C31.9801 25.9914 31.8123 26.0263 31.6631 26.1026C31.5138 26.1789 31.3889 26.2937 31.302 26.4346C31.215 26.5754 31.1693 26.7369 31.1699 26.9013V43.1007C31.1699 43.265 31.2159 43.4261 31.3031 43.5667C31.3902 43.7072 31.515 43.8218 31.6641 43.898ZM33.014 28.6193L42.4583 35.001L33.014 41.3826V28.6193Z" fill="url(#paint0_linear)"/>
<defs>
<filter id="filter0_d" x="0" y="0" width="70" height="70" filterUnits="userSpaceOnUse" color-interpolation-filters="sRGB">
<feFlood flood-opacity="0" result="BackgroundImageFix"/>
<feColorMatrix in="SourceAlpha" type="matrix" values="0 0 0 0 0 0 0 0 0 0 0 0 0 0 0 0 0 0 127 0"/>
<feOffset/>
<feGaussianBlur stdDeviation="5"/>
<feColorMatrix type="matrix" values="0 0 0 0 0 0 0 0 0 0 0 0 0 0 0 0 0 0 0.25 0"/>
<feBlend mode="normal" in2="BackgroundImageFix" result="effect1_dropShadow"/>
<feBlend mode="normal" in="SourceGraphic" in2="effect1_dropShadow" result="shape"/>
</filter>
<linearGradient id="paint0_linear" x1="38.0849" y1="26" x2="38.0849" y2="44" gradientUnits="userSpaceOnUse">
<stop stop-color="#57001E"/>
<stop offset="1" stop-color="#2E1665"/>
</linearGradient>
</defs>
</svg>
