<svg width="21" height="21" viewBox="0 0 21 21" fill="none" xmlns="http://www.w3.org/2000/svg">
<path d="M10.0622 20.1563C13.6365 20.1657 16.7818 18.3164 18.5794 15.5227C18.6591 15.3985 18.5701 15.2344 18.4224 15.2344H16.7747C16.6622 15.2344 16.5568 15.2836 16.4865 15.3703C16.3224 15.5696 16.1466 15.7617 15.9615 15.9446C15.1974 16.7063 14.3091 17.3063 13.3201 17.7235C12.2982 18.1547 11.2107 18.375 10.088 18.375C8.96537 18.375 7.87787 18.1571 6.856 17.7235C5.86694 17.3063 4.97865 16.7063 4.21459 15.9446C3.45053 15.1828 2.85287 14.2946 2.43334 13.3078C1.99975 12.286 1.78178 11.2008 1.78178 10.0782C1.78178 8.95549 2.00209 7.87034 2.43334 6.84846C2.85053 5.86174 3.45053 4.97346 4.21459 4.21174C4.97865 3.45003 5.86694 2.85002 6.856 2.43284C7.87868 2.00089 8.97787 1.77929 10.088 1.78128C11.2107 1.78128 12.2982 2.00159 13.3201 2.43284C14.3072 2.8496 15.2042 3.45371 15.9615 4.21174C16.1466 4.3969 16.3201 4.58909 16.4865 4.78596C16.5568 4.87268 16.6646 4.9219 16.7747 4.9219H18.4224C18.5701 4.9219 18.6615 4.75784 18.5794 4.63362C16.7841 1.8469 13.6529 2.52724e-05 10.088 2.52724e-05C4.55209 2.52724e-05 0.0567802 4.45549 0.000530243 9.97502C-0.0557198 15.5836 4.44662 20.1422 10.0622 20.1563ZM13.0313 7.45315V9.2344H20.3907C20.4938 9.2344 20.5782 9.31878 20.5782 9.4219V10.7344C20.5782 10.8375 20.4938 10.9219 20.3907 10.9219H13.0313V12.7032C13.0313 12.8602 12.8485 12.9492 12.7266 12.8508L9.40084 10.2258C9.37843 10.2083 9.36031 10.1859 9.34784 10.1603C9.33538 10.1347 9.3289 10.1066 9.3289 10.0782C9.3289 10.0497 9.33538 10.0216 9.34784 9.99603C9.36031 9.97044 9.37843 9.94803 9.40084 9.93049L12.7266 7.30549C12.8485 7.2094 13.0313 7.29612 13.0313 7.45315Z" fill="white"/>
</svg>
