<svg width="50" height="50" viewBox="0 0 50 50" fill="none" xmlns="http://www.w3.org/2000/svg">
<path d="M25.0002 45.8333C27.2918 45.8333 29.1668 43.9583 29.1668 41.6666H20.8335C20.8335 43.9583 22.7085 45.8333 25.0002 45.8333ZM37.5002 33.3333V22.9166C37.5002 16.5208 34.1043 11.1666 28.1252 9.74992V8.33325C28.1252 6.60409 26.7293 5.20825 25.0002 5.20825C23.271 5.20825 21.8752 6.60409 21.8752 8.33325V9.74992C15.9168 11.1666 12.5002 16.4999 12.5002 22.9166V33.3333L8.3335 37.4999V39.5833H41.6668V37.4999L37.5002 33.3333ZM33.3335 35.4166H16.6668V22.9166C16.6668 17.7499 19.8127 13.5416 25.0002 13.5416C30.1877 13.5416 33.3335 17.7499 33.3335 22.9166V35.4166Z" fill="white"/>
</svg>
