<svg width="16" height="20" viewBox="0 0 16 20" fill="none" xmlns="http://www.w3.org/2000/svg">
<path d="M14.8176 0.113283C14.6519 0.0291453 14.4658 -0.00935229 14.2793 0.00192261C14.0929 0.0131975 13.9131 0.0738189 13.7593 0.17728L0.441147 9.17693C0.305058 9.26896 0.193846 9.39181 0.117034 9.53496C0.040222 9.67811 9.91821e-05 9.8373 9.91821e-05 9.9989C9.91821e-05 10.1605 0.040222 10.3197 0.117034 10.4628C0.193846 10.606 0.305058 10.7288 0.441147 10.8209L13.7593 19.8205C13.9128 19.9251 14.0928 19.9865 14.2796 19.998C14.4664 20.0096 14.6529 19.9708 14.8188 19.886C14.9846 19.8012 15.1234 19.6736 15.22 19.5171C15.3166 19.3606 15.3673 19.1813 15.3667 18.9985L15.3667 0.999249C15.3667 0.816719 15.3156 0.63766 15.2188 0.481485C15.122 0.32531 14.9832 0.197977 14.8176 0.113283ZM13.3177 17.0896L2.82407 9.9989L13.3177 2.90817L13.3177 17.0896Z" fill="url(#paint0_linear)"/>
<defs>
<linearGradient id="paint0_linear" x1="7.6834" y1="20" x2="7.6834" y2="-4.76837e-07" gradientUnits="userSpaceOnUse">
<stop stop-color="#57001E"/>
<stop offset="1" stop-color="#2E1665"/>
</linearGradient>
</defs>
</svg>
