<svg width="22" height="17" viewBox="0 0 22 17" fill="none" xmlns="http://www.w3.org/2000/svg">
<path d="M0.156754 1.51226C0.0671749 1.67798 0.0261898 1.86405 0.0381947 2.0505C0.0501976 2.23694 0.114737 2.41672 0.224886 2.57054L9.80634 15.8887C9.90432 16.0248 10.0351 16.136 10.1875 16.2128C10.3399 16.2896 10.5094 16.3297 10.6815 16.3297C10.8535 16.3297 11.023 16.2896 11.1754 16.2128C11.3278 16.136 11.4586 16.0248 11.5566 15.8887L21.138 2.57054C21.2493 2.41701 21.3147 2.23703 21.327 2.05021C21.3393 1.86338 21.298 1.6769 21.2078 1.51108C21.1175 1.34526 20.9816 1.20648 20.815 1.10986C20.6484 1.01324 20.4574 0.962486 20.2629 0.963141L1.09999 0.963141C0.905664 0.96311 0.715031 1.01427 0.548759 1.11106C0.382488 1.20786 0.246922 1.3466 0.156754 1.51226ZM18.2306 3.01209L10.6815 13.5058L3.13233 3.01209L18.2306 3.01209Z" fill="url(#paint0_linear)"/>
<defs>
<linearGradient id="paint0_linear" x1="21.3291" y1="8.64644" x2="0.0361481" y2="8.64644" gradientUnits="userSpaceOnUse">
<stop stop-color="#57001E"/>
<stop offset="1" stop-color="#2E1665"/>
</linearGradient>
</defs>
</svg>
