<svg width="16" height="20" viewBox="0 0 16 20" fill="none" xmlns="http://www.w3.org/2000/svg">
<path d="M0.549124 19.8867C0.714848 19.9709 0.900919 20.0094 1.08736 19.9981C1.27381 19.9868 1.45359 19.9262 1.6074 19.8227L14.9256 10.8231C15.0616 10.731 15.1729 10.6082 15.2497 10.465C15.3265 10.3219 15.3666 10.1627 15.3666 10.0011C15.3666 9.83951 15.3265 9.68032 15.2497 9.53716C15.1729 9.39401 15.0616 9.27116 14.9256 9.17913L1.6074 0.179485C1.45388 0.0749438 1.27389 0.01355 1.08707 0.00199714C0.900249 -0.00955568 0.713764 0.0291759 0.547947 0.113969C0.38213 0.198762 0.243345 0.326363 0.146723 0.482858C0.0501015 0.639354 -0.000648659 0.818738 6.25934e-06 1.00145L6.25934e-06 19.0008C-2.45578e-05 19.1833 0.0511306 19.3623 0.147927 19.5185C0.244724 19.6747 0.383469 19.802 0.549124 19.8867ZM2.04895 2.91038L12.5426 10.0011L2.04895 17.0918V2.91038Z" fill="url(#paint0_linear)"/>
<defs>
<linearGradient id="paint0_linear" x1="7.6833" y1="0" x2="7.6833" y2="20" gradientUnits="userSpaceOnUse">
<stop stop-color="#57001E"/>
<stop offset="1" stop-color="#2E1665"/>
</linearGradient>
</defs>
</svg>
