<svg width="22" height="17" viewBox="0 0 22 17" fill="none" xmlns="http://www.w3.org/2000/svg">
<path d="M21.2085 15.7806C21.2981 15.6149 21.339 15.4289 21.327 15.2424C21.315 15.056 21.2505 14.8762 21.1403 14.7224L11.5589 1.40421C11.4609 1.26812 11.3301 1.15691 11.1777 1.0801C11.0253 1.00329 10.8558 0.963166 10.6838 0.963166C10.5117 0.963166 10.3423 1.00329 10.1899 1.0801C10.0374 1.15691 9.90665 1.26812 9.80868 1.40421L0.227221 14.7224C0.115922 14.8759 0.0505587 15.0559 0.0382591 15.2427C0.0259594 15.4295 0.0671949 15.616 0.15747 15.7818C0.247745 15.9476 0.383594 16.0864 0.550207 16.183C0.716819 16.2797 0.9078 16.3304 1.10233 16.3298H20.2652C20.4596 16.3298 20.6502 16.2786 20.8165 16.1818C20.9827 16.085 21.1183 15.9463 21.2085 15.7806ZM3.13466 14.2808L10.6838 3.78714L18.2329 14.2808L3.13466 14.2808Z" fill="url(#paint0_linear)"/>
<defs>
<linearGradient id="paint0_linear" x1="0.0361328" y1="8.64647" x2="21.3291" y2="8.64647" gradientUnits="userSpaceOnUse">
<stop stop-color="#57001E"/>
<stop offset="1" stop-color="#2E1665"/>
</linearGradient>
</defs>
</svg>
