<svg width="20" height="20" viewBox="0 0 20 20" fill="none" xmlns="http://www.w3.org/2000/svg">
<g clip-path="url(#clip0)">
<path d="M17.9907 12.245C17.7226 12.245 17.5052 12.4623 17.5052 12.7305V17.0408C17.5043 17.8449 16.8529 18.4965 16.0489 18.4972H2.42731C1.62326 18.4965 0.971871 17.8449 0.970923 17.0408V4.3902C0.971871 3.58634 1.62326 2.93476 2.42731 2.93381H6.73767C7.00582 2.93381 7.22314 2.71649 7.22314 2.44835C7.22314 2.1804 7.00582 1.96289 6.73767 1.96289H2.42731C1.08736 1.96441 0.00151707 3.05025 0 4.3902V17.041C0.00151707 18.381 1.08736 19.4668 2.42731 19.4683H16.0489C17.3888 19.4668 18.4747 18.381 18.4762 17.041V12.7305C18.4762 12.4623 18.2588 12.245 17.9907 12.245V12.245Z" fill="url(#paint0_linear)"/>
<path d="M18.2836 0.713723C17.4305 -0.139438 16.0473 -0.139438 15.1941 0.713723L6.5332 9.37466C6.47384 9.43401 6.43098 9.50759 6.40861 9.58837L5.26967 13.7002C5.22283 13.8688 5.27043 14.0493 5.39407 14.1731C5.5179 14.2968 5.69843 14.3444 5.86701 14.2977L9.97883 13.1586C10.0596 13.1362 10.1332 13.0934 10.1926 13.034L18.8533 4.37289C19.7051 3.51916 19.7051 2.13711 18.8533 1.28338L18.2836 0.713723ZM7.59097 9.69021L14.6793 2.60171L16.9653 4.88774L9.87681 11.9762L7.59097 9.69021ZM7.13433 10.6065L8.96069 12.4331L6.4344 13.133L7.13433 10.6065ZM18.1668 3.68641L17.652 4.20127L15.3657 1.91505L15.8808 1.4002C16.3547 0.926302 17.1231 0.926302 17.597 1.4002L18.1668 1.96985C18.64 2.44432 18.64 3.21214 18.1668 3.68641V3.68641Z" fill="url(#paint1_linear)"/>
</g>
<defs>
<linearGradient id="paint0_linear" x1="9.23808" y1="1.96289" x2="9.23808" y2="19.4683" gradientUnits="userSpaceOnUse">
<stop stop-color="#2E1665"/>
<stop offset="1" stop-color="#50001E"/>
</linearGradient>
<linearGradient id="paint1_linear" x1="12.3721" y1="0.0738525" x2="12.3721" y2="14.3153" gradientUnits="userSpaceOnUse">
<stop stop-color="#2E1665"/>
<stop offset="1" stop-color="#50001E"/>
</linearGradient>
<clipPath id="clip0">
<rect width="19.4924" height="19.4924" fill="white"/>
</clipPath>
</defs>
</svg>
