<svg width="25" height="25" viewBox="0 0 25 25" fill="none" xmlns="http://www.w3.org/2000/svg">
<path d="M11.4078 23.0045H2.92731C2.61222 23.0045 2.32511 22.8584 2.13947 22.6038C1.95377 22.349 1.90265 22.0307 1.99913 21.7306C2.96261 18.7352 5.90089 16.6431 9.14445 16.6431C10.6537 16.6431 12.103 17.0976 13.3357 17.9574C13.7773 18.2653 14.3848 18.1571 14.6929 17.7155C15.0008 17.274 14.8926 16.6664 14.451 16.3584C13.8408 15.9328 13.1888 15.5855 12.5068 15.3205C13.4142 14.4955 14.0162 13.3402 14.1207 12.0466C15.4966 10.7064 17.3 9.97202 19.2332 9.97202C20.7425 9.97202 22.1918 10.4265 23.4246 11.2863C23.8661 11.5942 24.4737 11.486 24.7817 11.0444C25.0896 10.6029 24.9814 9.99531 24.5398 9.6873C23.9296 9.26167 23.2776 8.91445 22.5956 8.64937C23.5966 7.73931 24.2258 6.42739 24.2258 4.97124C24.2259 2.23013 21.9957 0 19.2546 0C16.5134 0 14.2833 2.23013 14.2833 4.97134C14.2833 6.42158 14.9075 7.72881 15.9014 8.63843C15.7654 8.69077 15.6304 8.74644 15.4964 8.80542C14.8864 9.07383 14.3127 9.40332 13.7795 9.79092C13.0437 7.96401 11.2528 6.67114 9.16574 6.67114C6.42453 6.67114 4.19445 8.90127 4.19445 11.6425C4.19445 13.0885 4.81505 14.3923 5.80382 15.3016C3.15988 16.2924 1.01608 18.4202 0.14332 21.1338C-0.146134 22.0337 0.00718653 22.9881 0.564023 23.7521C1.12077 24.516 1.98209 24.9542 2.92736 24.9542H11.4078C11.9462 24.9542 12.3826 24.5177 12.3826 23.9794C12.3826 23.4411 11.9461 23.0045 11.4078 23.0045ZM19.2546 1.94951C20.9208 1.94951 22.2764 3.30508 22.2764 4.97129C22.2764 6.6375 20.9208 7.99307 19.2546 7.99307C17.5884 7.99307 16.2329 6.6375 16.2329 4.97129C16.2329 3.30508 17.5884 1.94951 19.2546 1.94951ZM9.16579 8.62061C10.832 8.62061 12.1875 9.97617 12.1875 11.6424C12.1875 13.3086 10.832 14.6642 9.16579 14.6642C7.49957 14.6642 6.14401 13.3086 6.14401 11.6424C6.14401 9.97617 7.49957 8.62061 9.16579 8.62061Z" fill="white"/>
<path d="M24.5508 15.922C24.113 15.6086 23.5041 15.7094 23.1908 16.1472L18.3861 22.8584C18.2549 23.0106 18.0904 23.0435 18.0024 23.0493C17.9117 23.0555 17.7356 23.0438 17.5846 22.9001L14.4741 19.9133C14.0857 19.5404 13.4686 19.553 13.0959 19.9413C12.723 20.3296 12.7356 20.9467 13.1238 21.3195L16.2375 24.3092C16.7038 24.7531 17.3262 25 17.9667 25C18.0217 25 18.0769 24.9982 18.132 24.9945C18.8297 24.948 19.4811 24.6088 19.9191 24.0638C19.9305 24.0497 19.9413 24.0353 19.9519 24.0206L24.7761 17.282C25.0894 16.8442 24.9886 16.2354 24.5508 15.922Z" fill="white"/>
</svg>
