<svg width="25" height="25" viewBox="0 0 25 25" fill="none" xmlns="http://www.w3.org/2000/svg">
<g clip-path="url(#clip0)">
<path d="M11.4293 23.0045H2.94879C2.6337 23.0045 2.34659 22.8584 2.16095 22.6038C1.97525 22.349 1.92413 22.0307 2.02061 21.7306C2.98409 18.7352 5.92237 16.6431 9.16593 16.6431C10.6752 16.6431 12.1245 17.0976 13.3572 17.9574C13.7988 18.2653 14.4063 18.1571 14.7144 17.7155C15.0223 17.274 14.9141 16.6664 14.4725 16.3584C13.8623 15.9328 13.2103 15.5855 12.5283 15.3205C13.4357 14.4955 14.0377 13.3402 14.1422 12.0466C15.5181 10.7064 17.3215 9.97202 19.2547 9.97202C20.764 9.97202 22.2133 10.4265 23.4461 11.2863C23.8876 11.5942 24.4952 11.486 24.8032 11.0444C25.1111 10.6029 25.0029 9.99531 24.5613 9.6873C23.9511 9.26167 23.2991 8.91445 22.6171 8.64937C23.6181 7.73931 24.2473 6.42739 24.2473 4.97124C24.2474 2.23013 22.0172 0 19.2761 0C16.5349 0 14.3048 2.23013 14.3048 4.97134C14.3048 6.42158 14.929 7.72881 15.9229 8.63843C15.7869 8.69077 15.6519 8.74644 15.5179 8.80542C14.9079 9.07383 14.3342 9.40332 13.801 9.79092C13.0652 7.96401 11.2743 6.67114 9.18722 6.67114C6.44601 6.67114 4.21593 8.90127 4.21593 11.6425C4.21593 13.0885 4.83653 14.3923 5.8253 15.3016C3.18136 16.2924 1.03756 18.4202 0.164804 21.1338C-0.12465 22.0337 0.0286708 22.9881 0.585507 23.7521C1.14225 24.516 2.00357 24.9542 2.94884 24.9542H11.4293C11.9677 24.9542 12.4041 24.5177 12.4041 23.9794C12.4041 23.4411 11.9676 23.0045 11.4293 23.0045ZM19.2761 1.94951C20.9423 1.94951 22.2979 3.30508 22.2979 4.97129C22.2979 6.6375 20.9423 7.99307 19.2761 7.99307C17.6099 7.99307 16.2544 6.6375 16.2544 4.97129C16.2544 3.30508 17.6099 1.94951 19.2761 1.94951ZM9.18727 8.62061C10.8535 8.62061 12.209 9.97617 12.209 11.6424C12.209 13.3086 10.8535 14.6642 9.18727 14.6642C7.52105 14.6642 6.16549 13.3086 6.16549 11.6424C6.16549 9.97617 7.52105 8.62061 9.18727 8.62061Z" fill="black"/>
<path d="M24.5713 15.922C24.1335 15.6086 23.5246 15.7094 23.2113 16.1472L18.4066 22.8584C18.2754 23.0106 18.1109 23.0435 18.0229 23.0493C17.9322 23.0555 17.7561 23.0438 17.6051 22.9001L14.4946 19.9133C14.1062 19.5404 13.4891 19.553 13.1164 19.9413C12.7435 20.3296 12.7561 20.9467 13.1443 21.3195L16.258 24.3092C16.7243 24.7531 17.3467 25 17.9872 25C18.0422 25 18.0974 24.9982 18.1525 24.9945C18.8502 24.948 19.5016 24.6088 19.9396 24.0638C19.951 24.0497 19.9618 24.0353 19.9724 24.0206L24.7966 17.282C25.1099 16.8442 25.0091 16.2354 24.5713 15.922Z" fill="black"/>
</g>
<defs>
<clipPath id="clip0">
<rect width="25" height="25" fill="white"/>
</clipPath>
</defs>
</svg>
