<svg width="32" height="32" viewBox="0 0 32 32" fill="none" xmlns="http://www.w3.org/2000/svg">
<path d="M14.6041 22.3442C14.7813 22.5212 15.0215 22.6208 15.2723 22.6208C15.5228 22.6208 15.763 22.5214 15.9402 22.3442L19.3135 18.9709C19.6827 18.6017 19.6827 18.0036 19.3135 17.6345C18.9446 17.2656 18.3463 17.2656 17.9774 17.6345L15.2723 20.3395L14.0389 19.1061C13.6697 18.7372 13.0716 18.7372 12.7025 19.1061C12.3336 19.475 12.3336 20.0734 12.7025 20.4426L14.6041 22.3442Z" fill="white"/>
<path d="M16.0068 27.4902C20.1428 27.4902 23.5076 24.1252 23.5076 19.9893C23.5076 15.8533 20.1428 12.4885 16.0068 12.4885C11.8706 12.4885 8.50586 15.8533 8.50586 19.9893C8.50586 24.1252 11.8708 27.4902 16.0068 27.4902ZM16.0068 14.3782C19.1008 14.3782 21.6179 16.8953 21.6179 19.9893C21.6179 23.0833 19.1008 25.6006 16.0068 25.6006C12.9128 25.6006 10.3955 23.0833 10.3955 19.9893C10.3955 16.8953 12.9128 14.3782 16.0068 14.3782Z" fill="white"/>
<path d="M28.584 2.01196H26.8606V0.944824C26.8606 0.423096 26.4375 0 25.9158 0C25.394 0 24.9709 0.423096 24.9709 0.944824V2.01196H23.1143V0.944824C23.1143 0.423096 22.6912 0 22.1692 0C21.6475 0 21.2244 0.423096 21.2244 0.944824V2.01196H10.7908V0.944824C10.7908 0.423096 10.3677 0 9.8457 0C9.32397 0 8.90088 0.423096 8.90088 0.944824V2.01196H7.04419V0.944824C7.04419 0.423096 6.62109 0 6.09912 0C5.57739 0 5.1543 0.423096 5.1543 0.944824V2.01196H3.43066C1.74585 2.01196 0.375 3.38281 0.375 5.06787V28.9443C0.375 30.6292 1.74585 32 3.43066 32H28.584C30.269 32 31.6396 30.6292 31.6396 28.9443V5.06787C31.6396 3.38281 30.2688 2.01196 28.584 2.01196ZM29.7498 28.9443C29.7498 29.5872 29.2268 30.1104 28.584 30.1104H3.43066C2.78784 30.1104 2.26465 29.5872 2.26465 28.9443V9.86865H29.7498V28.9443ZM2.26465 5.06787C2.26465 4.4248 2.78784 3.90186 3.43066 3.90186H5.1543V4.96899C5.1543 5.49072 5.57739 5.91382 6.09937 5.91382C6.62109 5.91382 7.04419 5.49072 7.04419 4.96899V3.90186H8.90088V4.96899C8.90088 5.49072 9.32397 5.91382 9.84595 5.91382C10.3677 5.91382 10.7908 5.49072 10.7908 4.96899V3.90186H21.2244V4.96899C21.2244 5.49072 21.6475 5.91382 22.1694 5.91382C22.6912 5.91382 23.1143 5.49072 23.1143 4.96899V3.90186H24.9709V4.96899C24.9709 5.49072 25.394 5.91382 25.9158 5.91382C26.4377 5.91382 26.8608 5.49072 26.8608 4.96899V3.90186H28.584C29.2268 3.90186 29.75 4.4248 29.75 5.06787V7.97876H2.26465V5.06787Z" fill="white"/>
</svg>
