<svg width="70" height="70" viewBox="0 0 70 70" fill="none" xmlns="http://www.w3.org/2000/svg">
<g filter="url(#filter0_d)">
<circle cx="35" cy="35" r="25" fill="white"/>
</g>
<g clip-path="url(#clip0)">
<path d="M44.2281 37.4485C43.9117 37.4485 43.6553 37.7049 43.6553 38.0213V43.1073C43.6542 44.056 42.8856 44.8248 41.9368 44.8257H25.8641C24.9154 44.8248 24.1468 44.056 24.1456 43.1073V28.1802C24.1468 27.2317 24.9154 26.4629 25.8641 26.4617H30.9501C31.2665 26.4617 31.5229 26.2053 31.5229 25.8889C31.5229 25.5728 31.2665 25.3161 30.9501 25.3161H25.8641C24.283 25.3179 23.0018 26.5991 23 28.1802V43.1075C23.0018 44.6886 24.283 45.9698 25.8641 45.9716H41.9368C43.5179 45.9698 44.7991 44.6886 44.8009 43.1075V38.0213C44.8009 37.7049 44.5445 37.4485 44.2281 37.4485Z" fill="black"/>
<path d="M44.574 23.8422C43.5673 22.8355 41.9352 22.8355 40.9285 23.8422L30.7091 34.0617C30.639 34.1317 30.5885 34.2185 30.5621 34.3138L29.2182 39.1656C29.1629 39.3645 29.2191 39.5775 29.365 39.7236C29.5111 39.8695 29.7241 39.9257 29.923 39.8706L34.7747 38.5265C34.8701 38.5001 34.9569 38.4495 35.0269 38.3795L45.2461 28.1598C46.2513 27.1525 46.2513 25.5217 45.2461 24.5144L44.574 23.8422ZM31.9572 34.434L40.321 26.0699L43.0184 28.7673L34.6544 37.1314L31.9572 34.434ZM31.4184 35.5152L33.5734 37.6704L30.5925 38.4963L31.4184 35.5152ZM44.4361 27.3498L43.8286 27.9573L41.131 25.2597L41.7387 24.6522C42.2979 24.093 43.2046 24.093 43.7637 24.6522L44.4361 25.3244C44.9944 25.8842 44.9944 26.7902 44.4361 27.3498Z" fill="black"/>
</g>
<defs>
<filter id="filter0_d" x="0" y="0" width="70" height="70" filterUnits="userSpaceOnUse" color-interpolation-filters="sRGB">
<feFlood flood-opacity="0" result="BackgroundImageFix"/>
<feColorMatrix in="SourceAlpha" type="matrix" values="0 0 0 0 0 0 0 0 0 0 0 0 0 0 0 0 0 0 127 0"/>
<feOffset/>
<feGaussianBlur stdDeviation="5"/>
<feColorMatrix type="matrix" values="0 0 0 0 0 0 0 0 0 0 0 0 0 0 0 0 0 0 0.25 0"/>
<feBlend mode="normal" in2="BackgroundImageFix" result="effect1_dropShadow"/>
<feBlend mode="normal" in="SourceGraphic" in2="effect1_dropShadow" result="shape"/>
</filter>
<clipPath id="clip0">
<rect width="23" height="23" fill="white" transform="translate(23 23)"/>
</clipPath>
</defs>
</svg>
