<svg width="70" height="70" viewBox="0 0 70 70" fill="none" xmlns="http://www.w3.org/2000/svg">
<g filter="url(#filter0_d)">
<circle cx="35" cy="35" r="25" fill="white"/>
</g>
<path d="M39.8175 24.1293C39.6517 24.0333 39.4657 23.9893 39.2792 24.0022C39.0928 24.0151 38.913 24.0843 38.7592 24.2024L25.441 34.4784C25.3049 34.5835 25.1937 34.7237 25.1169 34.8872C25.0401 35.0506 25 35.2324 25 35.4169C25 35.6014 25.0401 35.7832 25.1169 35.9467C25.1937 36.1101 25.3049 36.2504 25.441 36.3555L38.7592 46.6314C38.9127 46.7508 39.0927 46.8209 39.2795 46.8341C39.4663 46.8473 39.6528 46.8031 39.8186 46.7062C39.9844 46.6094 40.1232 46.4637 40.2199 46.285C40.3165 46.1063 40.3672 45.9015 40.3666 45.6929V25.141C40.3666 24.9325 40.3154 24.7281 40.2187 24.5498C40.1219 24.3714 39.9831 24.2261 39.8175 24.1293ZM38.3176 43.5132L27.8239 35.4169L38.3176 27.3206V43.5132Z" fill="url(#paint0_linear)"/>
<defs>
<filter id="filter0_d" x="0" y="0" width="70" height="70" filterUnits="userSpaceOnUse" color-interpolation-filters="sRGB">
<feFlood flood-opacity="0" result="BackgroundImageFix"/>
<feColorMatrix in="SourceAlpha" type="matrix" values="0 0 0 0 0 0 0 0 0 0 0 0 0 0 0 0 0 0 127 0"/>
<feOffset/>
<feGaussianBlur stdDeviation="5"/>
<feColorMatrix type="matrix" values="0 0 0 0 0 0 0 0 0 0 0 0 0 0 0 0 0 0 0.25 0"/>
<feBlend mode="normal" in2="BackgroundImageFix" result="effect1_dropShadow"/>
<feBlend mode="normal" in="SourceGraphic" in2="effect1_dropShadow" result="shape"/>
</filter>
<linearGradient id="paint0_linear" x1="32.6833" y1="46.8364" x2="32.6833" y2="24" gradientUnits="userSpaceOnUse">
<stop stop-color="#57001E"/>
<stop offset="1" stop-color="#2E1665"/>
</linearGradient>
</defs>
</svg>
