<svg width="108" height="108" viewBox="0 0 108 108" fill="none" xmlns="http://www.w3.org/2000/svg">
<g filter="url(#filter0_d)">
<circle cx="54" cy="54" r="44" fill="white"/>
</g>
<path d="M77.9813 77.0531C77.9813 72.7713 74.9199 69.1924 70.874 68.395C72.1319 67.5328 73.1068 66.2865 73.6298 64.8262C75.2031 64.7905 76.4722 63.4989 76.4722 61.9152C76.4722 60.4772 75.4259 59.2801 74.0556 59.0451V58.1247C74.613 57.5463 75.7606 55.9922 75.5177 53.1761C75.4141 51.9772 74.9621 51.0358 74.174 50.3779C73.188 49.5547 71.9495 49.4327 71.3569 49.4264C70.614 48.7686 68.256 47.0125 65.1044 47.9204C63.7188 48.3195 62.7415 48.9133 61.8793 49.4372C60.5662 50.2351 59.5291 50.8654 57.4099 50.5959C56.9757 50.5295 56.5612 50.9205 56.602 51.3583C56.6599 52.211 57.1466 53.6291 58.4959 54.2304C58.0845 54.4363 57.5123 54.5958 56.7413 54.5728C56.1493 54.5348 55.775 55.2818 56.1533 55.735C56.2201 55.8204 57.7157 57.7136 59.4809 58.4222V59.045C58.1107 59.2801 57.0643 60.4772 57.0643 61.9151C57.0643 63.4988 58.3335 64.7904 59.9068 64.8261C60.4295 66.2857 61.4037 67.5314 62.6606 68.3935C61.4232 68.6359 60.2533 69.1427 59.2144 69.8938C58.8925 70.1264 58.8202 70.5761 59.0527 70.8981C59.2853 71.2201 59.735 71.2923 60.0565 71.0597C61.1763 70.2502 62.4782 69.7807 63.8487 69.6859L64.7759 72.0773L63.9488 76.6174H57.0059C57.0833 75.2819 57.5168 74.0034 58.2713 72.8957C58.4949 72.5675 58.4102 72.12 58.0821 71.8963C57.7537 71.6726 57.3066 71.7574 57.0831 72.0856C56.0836 73.5529 55.5553 75.2706 55.5553 77.0529C55.4864 77.5315 55.7325 78.0624 56.2742 78.0559H77.2621C77.8043 78.0625 78.0501 77.5316 77.9813 77.0531ZM75.0343 61.9151C75.0343 62.5787 74.5942 63.141 73.9912 63.3252C74.0323 63.0122 74.0557 62.6937 74.0557 62.3697V60.5277C74.625 60.7314 75.0343 61.2756 75.0343 61.9151ZM58.5025 61.9151C58.5025 61.2756 58.9118 60.7314 59.481 60.5278V62.3698C59.481 62.6938 59.5045 63.0123 59.5455 63.3252C58.9426 63.141 58.5025 62.5788 58.5025 61.9151ZM60.2507 57.1695C59.5154 56.95 58.78 56.3772 58.2255 55.8555C59.9746 55.4132 60.6389 54.1923 60.6727 54.1279C60.7918 53.9016 60.7817 53.6291 60.6464 53.4122C60.5111 53.1952 60.2662 53.0655 60.0153 53.074C59.251 53.0958 58.7119 52.8291 58.3685 52.2564C58.337 52.2039 58.3084 52.1509 58.2825 52.0983C60.2382 52.1168 61.4018 51.4105 62.6258 50.6667C63.4495 50.1661 64.3011 49.6486 65.5024 49.3027C68.4077 48.4659 70.4744 50.5614 70.5591 50.6491C70.7095 50.8072 70.9271 50.8881 71.1439 50.8696C71.4218 50.846 73.862 50.7141 74.085 53.2998C74.1862 54.4721 74.0164 55.4923 73.5804 56.3321C73.466 56.5523 73.3473 56.7308 73.2413 56.8695C72.4621 56.2103 71.7117 55.0678 71.452 54.6137C71.1958 54.1304 70.4382 54.1387 70.1942 54.6294C69.5307 55.8634 68.3514 56.4199 67.5674 56.6629C67.399 55.6248 66.7513 54.8384 66.7153 54.7955C66.4491 54.4618 65.9004 54.4547 65.6257 54.7807C63.7665 56.8821 61.418 57.1577 60.6342 57.1891C60.5048 57.1909 60.3762 57.2062 60.2507 57.1695ZM60.919 62.3698V58.6112C61.9412 58.5316 64.1046 58.152 66.0165 56.4272C66.1359 56.7283 66.2119 57.0785 66.1422 57.4076C66.0323 57.8646 66.4455 58.3289 66.9115 58.2729C67.0213 58.2628 69.2791 58.0331 70.8075 56.2611C70.8734 56.3542 70.9437 56.4512 71.0181 56.5503C71.5644 57.2795 72.1008 57.8346 72.6176 58.2062V62.3697C72.6176 65.6003 69.9937 68.2287 66.7683 68.2287C63.5429 68.2287 60.919 65.6004 60.919 62.3698ZM67.5247 71.2873H66.0122L65.384 69.6673H68.1529L67.5247 71.2873ZM66.1198 72.7258H67.4171L68.126 76.6175H65.4108L66.1198 72.7258ZM69.5878 76.6175L68.7607 72.0773L69.6873 69.6875C73.3689 69.9448 76.315 72.9189 76.5307 76.6175H69.5878Z" fill="black"/>
<path d="M63.6384 59.5485C63.2413 59.5485 62.9194 59.8705 62.9194 60.2678V61.7301C62.9194 62.1274 63.2413 62.4494 63.6384 62.4494C64.0356 62.4494 64.3574 62.1274 64.3574 61.7301V60.2678C64.3574 59.8705 64.0356 59.5485 63.6384 59.5485Z" fill="black"/>
<path d="M69.9514 62.4495C70.3486 62.4495 70.6704 62.1275 70.6704 61.7303V60.2679C70.6704 59.8707 70.3486 59.5486 69.9514 59.5486C69.5542 59.5486 69.2324 59.8707 69.2324 60.2679V61.7303C69.2324 62.1274 69.5542 62.4495 69.9514 62.4495Z" fill="black"/>
<path d="M68.8846 64.595C68.9303 64.5005 68.9559 64.3946 68.9559 64.2825C68.9559 63.8852 68.6339 63.5632 68.2369 63.5632C67.9308 63.5632 67.6695 63.7547 67.5658 64.0243C67.5371 64.0805 67.3648 64.3607 66.7951 64.3607C66.2255 64.3607 66.0532 64.0805 66.0245 64.0243C65.9207 63.7547 65.6594 63.5632 65.3532 63.5632C64.9562 63.5632 64.6343 63.8852 64.6343 64.2825C64.6343 64.3945 64.6598 64.5004 64.7055 64.595C64.8894 65.0422 65.536 65.7992 66.795 65.7992C68.0541 65.7992 68.7008 65.0422 68.8846 64.595Z" fill="black"/>
<path d="M44.313 49.8379C45.5709 48.9756 46.5458 47.7294 47.0687 46.2691C48.6421 46.2335 49.9113 44.9418 49.9113 43.3581C49.9113 42.8523 49.7817 42.3763 49.5543 41.9615C50.3601 39.8809 50.6493 37.7738 50.3893 35.8451C50.1336 33.9475 49.3426 32.2784 48.1621 31.1453C46.0829 29.1496 44.002 29.5284 42.8768 30.1693C41.859 29.5808 39.1859 28.376 35.8307 29.5249C33.8621 30.199 32.1627 31.8626 31.1684 34.0891C30.4061 35.796 29.7152 38.6034 30.6816 42.3541C30.5665 42.6672 30.5035 43.0053 30.5035 43.358C30.5035 44.9417 31.7727 46.2333 33.346 46.269C33.8687 47.7287 34.8431 48.9746 36.1001 49.8367C34.7655 50.0972 33.5136 50.6636 32.4158 51.5147C32.1021 51.758 32.0447 52.2098 32.2881 52.5238C32.5314 52.8379 32.983 52.895 33.2968 52.6517C34.4603 51.7496 35.831 51.2292 37.2878 51.1292L38.215 53.5201L37.3878 58.0603H30.445C30.5168 56.8324 30.8916 55.6446 31.5398 54.6007C31.7493 54.2633 31.6458 53.8198 31.3084 53.6102C30.9711 53.4007 30.5278 53.5041 30.3182 53.8417C29.452 55.2365 28.9942 56.8459 28.9942 58.4959C28.9253 58.9745 29.1714 59.5054 29.7132 59.4989H50.7011C51.2431 59.5053 51.4889 58.9745 51.4201 58.4959C51.4204 54.214 48.3589 50.6353 44.313 49.8379ZM47.4302 44.7681C47.5342 44.139 47.4839 42.6268 47.4947 41.9707C48.0641 42.1743 48.4734 42.7184 48.4734 43.3581C48.4733 44.0217 48.0332 44.584 47.4302 44.7681ZM31.9415 43.358C31.9415 42.7184 32.3508 42.1743 32.9201 41.9707C32.9311 42.6355 32.8804 44.1309 32.9846 44.7681C32.3816 44.5839 31.9415 44.0217 31.9415 43.358ZM33.4126 40.4453C32.8335 40.4453 32.2938 40.6164 31.8399 40.9096C30.9672 35.8591 33.2852 31.9168 36.2964 30.8858C39.7769 29.6942 42.3554 31.5296 42.4612 31.6068C42.7271 31.8036 43.0883 31.7974 43.3429 31.5863C43.5216 31.4433 45.1475 30.2454 47.1665 32.1833C49.3502 34.2794 49.3892 37.8696 48.4318 40.8229C48.0093 40.583 47.5216 40.4453 47.0022 40.4453C46.9967 40.4453 46.9913 40.4457 46.9858 40.4457C44.2967 38.5316 42.4814 35.0577 42.4631 35.0224C42.2437 34.5636 41.5583 34.4987 41.2575 34.9088C41.2289 34.9455 38.3637 38.5593 33.5241 40.4482C33.4869 40.4468 33.4496 40.4453 33.4126 40.4453ZM34.358 43.8126V41.6653C38.0211 40.1623 40.5539 37.8055 41.7004 36.5836C42.4544 37.8189 43.9923 40.0474 46.0566 41.5504V43.8126C46.0566 47.0433 43.4326 49.6716 40.2073 49.6716C36.9819 49.6716 34.358 47.0433 34.358 43.8126ZM38.8497 58.0603L39.5587 54.1688H40.8561L41.5651 58.0603H38.8497ZM40.9636 52.7301H39.451L38.8228 51.1101H41.5917L40.9636 52.7301ZM43.0268 58.0603L42.1995 53.5201L43.1262 51.1303C46.8078 51.3876 49.7538 54.3617 49.9696 58.0603H43.0268Z" fill="black"/>
<path d="M37.0779 40.9915C36.6807 40.9915 36.3589 41.3135 36.3589 41.7108V43.1731C36.3589 43.5704 36.6808 43.8924 37.0779 43.8924C37.475 43.8924 37.7968 43.5704 37.7968 43.1731V41.7108C37.7968 41.3135 37.4749 40.9915 37.0779 40.9915Z" fill="black"/>
<path d="M43.3899 43.8925C43.787 43.8925 44.1088 43.5705 44.1088 43.1732V41.7109C44.1088 41.3136 43.7869 40.9916 43.3899 40.9916C42.9927 40.9916 42.6709 41.3136 42.6709 41.7109V43.1732C42.6709 43.5704 42.9927 43.8925 43.3899 43.8925Z" fill="black"/>
<path d="M42.3235 46.0381C42.3692 45.9436 42.3947 45.8377 42.3947 45.7256C42.3947 45.3283 42.0728 45.0063 41.6758 45.0063C41.3696 45.0063 41.1084 45.1978 41.0046 45.4674C40.9759 45.5236 40.8036 45.8038 40.234 45.8038C39.6643 45.8038 39.492 45.5236 39.4633 45.4674C39.3596 45.1978 39.0982 45.0063 38.7922 45.0063C38.3952 45.0063 38.0732 45.3283 38.0732 45.7256C38.0732 45.8376 38.0988 45.9435 38.1445 46.0381C38.3283 46.4852 38.9749 47.2423 40.2341 47.2423C41.4932 47.2423 42.1396 46.4852 42.3235 46.0381Z" fill="black"/>
<path d="M48.9881 71.7351C46.3674 71.7351 44.0014 70.1704 42.9365 67.8306H44.7918C45.4016 67.8509 45.7483 67.0526 45.3176 66.6206L40.603 61.567C40.3331 61.265 39.8217 61.265 39.5517 61.567L34.8373 66.6206C34.4065 67.0528 34.7532 67.8509 35.363 67.8306H37.5268C38.7836 73.1082 43.511 76.8783 48.9882 76.8783C49.3854 76.8783 49.7072 76.5563 49.7072 76.159V72.4544C49.7071 72.0572 49.3852 71.7351 48.9881 71.7351ZM48.2691 75.415C43.5958 75.0922 39.6805 71.6448 38.816 66.9802C38.7529 66.6394 38.4557 66.3921 38.1091 66.3921H37.0173L40.0773 63.112L43.1374 66.3921H41.9075C41.4442 66.3799 41.0771 66.867 41.2162 67.3092C42.1374 70.5297 44.9794 72.8443 48.2692 73.1413V75.415H48.2691Z" fill="black"/>
<path d="M57.9087 35.4333C60.5294 35.4333 62.8954 36.9981 63.9603 39.3378H62.1049C61.4952 39.3175 61.1485 40.1159 61.5792 40.5479L66.2937 45.6014C66.5637 45.9034 67.0751 45.9034 67.345 45.6014L72.0595 40.5479C72.4902 40.1157 72.1435 39.3175 71.5338 39.3378H69.3701C68.8386 37.1032 67.6775 35.0955 65.989 33.5016C65.7003 33.229 65.2452 33.2422 64.9727 33.5312C64.7001 33.8201 64.7134 34.2754 65.0022 34.548C66.6142 36.0696 67.6787 38.0199 68.0806 40.1882C68.1437 40.5291 68.4409 40.7764 68.7875 40.7764H69.8794L66.8193 44.0565L63.7593 40.7764H64.9891C65.4524 40.7886 65.8196 40.3014 65.6804 39.8592C64.7593 36.6388 61.9173 34.3242 58.6275 34.0272L58.6276 31.7538C60.0969 31.8563 61.5346 32.2717 62.824 32.9706C63.1733 33.1596 63.6095 33.0299 63.7986 32.6807C63.9878 32.3314 63.8581 31.895 63.5089 31.7057C61.8001 30.7797 59.8636 30.2902 57.9085 30.2902C57.5223 30.2825 57.1819 30.6231 57.1896 31.0094L57.1897 34.7141C57.1898 35.1113 57.5117 35.4333 57.9087 35.4333Z" fill="black"/>
<defs>
<filter id="filter0_d" x="0" y="0" width="108" height="108" filterUnits="userSpaceOnUse" color-interpolation-filters="sRGB">
<feFlood flood-opacity="0" result="BackgroundImageFix"/>
<feColorMatrix in="SourceAlpha" type="matrix" values="0 0 0 0 0 0 0 0 0 0 0 0 0 0 0 0 0 0 127 0"/>
<feOffset/>
<feGaussianBlur stdDeviation="5"/>
<feColorMatrix type="matrix" values="0 0 0 0 0 0 0 0 0 0 0 0 0 0 0 0 0 0 0.25 0"/>
<feBlend mode="normal" in2="BackgroundImageFix" result="effect1_dropShadow"/>
<feBlend mode="normal" in="SourceGraphic" in2="effect1_dropShadow" result="shape"/>
</filter>
</defs>
</svg>
