<svg width="32" height="32" viewBox="0 0 32 32" fill="none" xmlns="http://www.w3.org/2000/svg">
<path d="M14.6036 22.3442C14.7808 22.5212 15.0211 22.6208 15.2718 22.6208C15.5223 22.6208 15.7625 22.5215 15.9398 22.3442L19.3131 18.9709C19.6822 18.6018 19.6822 18.0037 19.3131 17.6345C18.9442 17.2656 18.3458 17.2656 17.9769 17.6345L15.2718 20.3396L14.0384 19.1062C13.6693 18.7373 13.0711 18.7373 12.702 19.1062C12.3331 19.4751 12.3331 20.0735 12.702 20.4426L14.6036 22.3442Z" fill="black"/>
<path d="M16.0078 27.4902C20.1438 27.4902 23.5085 24.1252 23.5085 19.9893C23.5085 15.8533 20.1438 12.4885 16.0078 12.4885C11.8716 12.4885 8.50684 15.8533 8.50684 19.9893C8.50684 24.1252 11.8718 27.4902 16.0078 27.4902ZM16.0078 14.3782C19.1018 14.3782 21.6189 16.8953 21.6189 19.9893C21.6189 23.0833 19.1018 25.6006 16.0078 25.6006C12.9138 25.6006 10.3965 23.0833 10.3965 19.9893C10.3965 16.8953 12.9138 14.3782 16.0078 14.3782Z" fill="black"/>
<path d="M28.584 2.01196H26.8606V0.944824C26.8606 0.423096 26.4375 0 25.9158 0C25.394 0 24.9709 0.423096 24.9709 0.944824V2.01196H23.1143V0.944824C23.1143 0.423096 22.6912 0 22.1692 0C21.6475 0 21.2244 0.423096 21.2244 0.944824V2.01196H10.7908V0.944824C10.7908 0.423096 10.3677 0 9.8457 0C9.32397 0 8.90088 0.423096 8.90088 0.944824V2.01196H7.04419V0.944824C7.04419 0.423096 6.62109 0 6.09912 0C5.57739 0 5.1543 0.423096 5.1543 0.944824V2.01196H3.43066C1.74585 2.01196 0.375 3.38281 0.375 5.06787V28.9443C0.375 30.6292 1.74585 32 3.43066 32H28.584C30.269 32 31.6396 30.6292 31.6396 28.9443V5.06787C31.6396 3.38281 30.2688 2.01196 28.584 2.01196ZM29.7498 28.9443C29.7498 29.5872 29.2268 30.1104 28.584 30.1104H3.43066C2.78784 30.1104 2.26465 29.5872 2.26465 28.9443V9.86865H29.7498V28.9443ZM2.26465 5.06787C2.26465 4.4248 2.78784 3.90186 3.43066 3.90186H5.1543V4.96899C5.1543 5.49072 5.57739 5.91382 6.09937 5.91382C6.62109 5.91382 7.04419 5.49072 7.04419 4.96899V3.90186H8.90088V4.96899C8.90088 5.49072 9.32397 5.91382 9.84595 5.91382C10.3677 5.91382 10.7908 5.49072 10.7908 4.96899V3.90186H21.2244V4.96899C21.2244 5.49072 21.6475 5.91382 22.1694 5.91382C22.6912 5.91382 23.1143 5.49072 23.1143 4.96899V3.90186H24.9709V4.96899C24.9709 5.49072 25.394 5.91382 25.9158 5.91382C26.4377 5.91382 26.8608 5.49072 26.8608 4.96899V3.90186H28.584C29.2268 3.90186 29.75 4.4248 29.75 5.06787V7.97876H2.26465V5.06787Z" fill="black"/>
</svg>
