<svg width="70" height="70" viewBox="0 0 70 70" fill="none" xmlns="http://www.w3.org/2000/svg">
<g filter="url(#filter0_d)">
<circle cx="35" cy="35" r="25" fill="white"/>
</g>
<path d="M38.3359 26.102C38.1867 26.0262 38.0193 25.9916 37.8515 26.0017C37.6837 26.0119 37.5218 26.0664 37.3834 26.1596L25.3971 34.2592C25.2746 34.3421 25.1745 34.4526 25.1054 34.5815C25.0362 34.7103 25.0001 34.8536 25.0001 34.999C25.0001 35.1444 25.0362 35.2877 25.1054 35.4166C25.1745 35.5454 25.2746 35.656 25.3971 35.7388L37.3834 43.8385C37.5216 43.9326 37.6836 43.9878 37.8517 43.9982C38.0199 44.0086 38.1877 43.9737 38.3369 43.8974C38.4862 43.8211 38.6111 43.7063 38.698 43.5654C38.785 43.4246 38.8307 43.2631 38.8301 43.0987V26.8993C38.8301 26.735 38.7841 26.5739 38.6969 26.4333C38.6098 26.2928 38.485 26.1782 38.3359 26.102ZM36.986 41.3807L27.5417 34.999L36.986 28.6174V41.3807Z" fill="url(#paint0_linear)"/>
<defs>
<filter id="filter0_d" x="0" y="0" width="70" height="70" filterUnits="userSpaceOnUse" color-interpolation-filters="sRGB">
<feFlood flood-opacity="0" result="BackgroundImageFix"/>
<feColorMatrix in="SourceAlpha" type="matrix" values="0 0 0 0 0 0 0 0 0 0 0 0 0 0 0 0 0 0 127 0"/>
<feOffset/>
<feGaussianBlur stdDeviation="5"/>
<feColorMatrix type="matrix" values="0 0 0 0 0 0 0 0 0 0 0 0 0 0 0 0 0 0 0.25 0"/>
<feBlend mode="normal" in2="BackgroundImageFix" result="effect1_dropShadow"/>
<feBlend mode="normal" in="SourceGraphic" in2="effect1_dropShadow" result="shape"/>
</filter>
<linearGradient id="paint0_linear" x1="31.9151" y1="44" x2="31.9151" y2="26" gradientUnits="userSpaceOnUse">
<stop stop-color="#57001E"/>
<stop offset="1" stop-color="#2E1665"/>
</linearGradient>
</defs>
</svg>
