<svg width="70" height="70" viewBox="0 0 70 70" fill="none" xmlns="http://www.w3.org/2000/svg">
<g filter="url(#filter0_d)">
<circle cx="35" cy="35" r="25" fill="white"/>
</g>
<path d="M35 26.1125L37.5875 31.3438L38.0187 32.2813L38.9562 32.4219L44.7312 33.2563L40.625 37.2875L39.9218 37.9719L40.0906 38.9094L41.075 44.6562L35.9093 41.9469L35 41.5625L34.1281 42.0219L28.9625 44.6938L29.9 38.9469L30.0687 38.0094L29.375 37.2875L25.2312 33.2094L31.0062 32.375L31.9437 32.2344L32.375 31.2969L35 26.1125ZM35 21.875L30.7343 30.5188L21.2 31.8969L28.1 38.6281L26.4687 48.125L35 43.6438L43.5312 48.125L41.9 38.6281L48.8 31.9062L39.2656 30.5188L35 21.875Z" fill="url(#paint0_linear)"/>
<defs>
<filter id="filter0_d" x="0" y="0" width="70" height="70" filterUnits="userSpaceOnUse" color-interpolation-filters="sRGB">
<feFlood flood-opacity="0" result="BackgroundImageFix"/>
<feColorMatrix in="SourceAlpha" type="matrix" values="0 0 0 0 0 0 0 0 0 0 0 0 0 0 0 0 0 0 127 0"/>
<feOffset/>
<feGaussianBlur stdDeviation="5"/>
<feColorMatrix type="matrix" values="0 0 0 0 0 0 0 0 0 0 0 0 0 0 0 0 0 0 0.25 0"/>
<feBlend mode="normal" in2="BackgroundImageFix" result="effect1_dropShadow"/>
<feBlend mode="normal" in="SourceGraphic" in2="effect1_dropShadow" result="shape"/>
</filter>
<linearGradient id="paint0_linear" x1="35" y1="21.875" x2="35" y2="48.125" gradientUnits="userSpaceOnUse">
<stop stop-color="#57001E"/>
<stop offset="1" stop-color="#2E1665"/>
</linearGradient>
</defs>
</svg>
