<svg width="24" height="24" viewBox="0 0 24 24" fill="none" xmlns="http://www.w3.org/2000/svg">
<path d="M16.5 16.71L18.255 7.8C19.44 7.155 20.25 5.925 20.25 4.5C20.25 3.50544 19.8549 2.55161 19.1516 1.84835C18.4484 1.14509 17.4946 0.75 16.5 0.75C15.5054 0.75 14.5516 1.14509 13.8483 1.84835C13.1451 2.55161 12.75 3.50544 12.75 4.5C12.75 5.925 13.56 7.155 14.745 7.8L16.5 16.71ZM16.5 2.25C17.745 2.25 18.75 3.255 18.75 4.5C18.75 5.745 17.745 6.75 16.5 6.75C15.255 6.75 14.25 5.745 14.25 4.5C14.25 3.255 15.255 2.25 16.5 2.25ZM19.08 9.45L24 7.455V20.955L16.68 24L7.5 20.955L0 23.955V10.455L7.5 7.455L13.905 9.57L16.5 20.52L19.08 9.45Z" fill="white"/>
</svg>
