<svg width="30" height="30" viewBox="0 0 30 30" fill="none" xmlns="http://www.w3.org/2000/svg">
<path d="M19.5 19.71L21.255 10.8C22.44 10.155 23.25 8.925 23.25 7.5C23.25 6.50544 22.8549 5.55161 22.1516 4.84835C21.4484 4.14509 20.4946 3.75 19.5 3.75C18.5054 3.75 17.5516 4.14509 16.8483 4.84835C16.1451 5.55161 15.75 6.50544 15.75 7.5C15.75 8.925 16.56 10.155 17.745 10.8L19.5 19.71ZM19.5 5.25C20.745 5.25 21.75 6.255 21.75 7.5C21.75 8.745 20.745 9.75 19.5 9.75C18.255 9.75 17.25 8.745 17.25 7.5C17.25 6.255 18.255 5.25 19.5 5.25ZM22.08 12.45L27 10.455V23.955L19.68 27L10.5 23.955L3 26.955V13.455L10.5 10.455L16.905 12.57L19.5 23.52L22.08 12.45Z" fill="black"/>
</svg>
