<svg width="30" height="28" viewBox="0 0 30 28" fill="none" xmlns="http://www.w3.org/2000/svg">
<path d="M29.6985 6.7475L26.136 4.0025C25.8939 3.84709 25.6307 3.72736 25.3545 3.647C25.0794 3.55796 24.793 3.50847 24.504 3.5H14.25L15.4515 11H24.504C24.75 11 25.0575 10.9445 25.353 10.853C25.6485 10.7615 25.9335 10.6355 26.1345 10.499L29.697 7.751C29.8995 7.6145 30 7.433 30 7.25C30 7.067 29.8995 6.8855 29.6985 6.7475ZM12.75 0.5H11.25C11.0511 0.5 10.8603 0.579018 10.7197 0.71967C10.579 0.860322 10.5 1.05109 10.5 1.25V6.5H5.496C5.247 6.5 4.941 6.5555 4.6455 6.6485C4.3485 6.7385 4.065 6.863 3.864 7.0025L0.3015 9.7475C0.099 9.884 0 10.067 0 10.25C0 10.4315 0.099 10.613 0.3015 10.7525L3.864 13.5005C4.065 13.637 4.3485 13.763 4.6455 13.853C4.941 13.9445 5.247 14 5.496 14H10.5V26.75C10.5 26.9489 10.579 27.1397 10.7197 27.2803C10.8603 27.421 11.0511 27.5 11.25 27.5H12.75C12.9489 27.5 13.1397 27.421 13.2803 27.2803C13.421 27.1397 13.5 26.9489 13.5 26.75V1.25C13.5 1.05109 13.421 0.860322 13.2803 0.71967C13.1397 0.579018 12.9489 0.5 12.75 0.5Z" fill="white"/>
</svg>
