<svg width="108" height="21" viewBox="0 0 108 21" fill="none" xmlns="http://www.w3.org/2000/svg">
<path d="M75.9999 4.075L77.7249 7.5625L78.0124 8.1875L78.6374 8.28125L82.4874 8.8375L79.7499 11.525L79.2812 11.9813L79.3937 12.6063L80.0499 16.4375L76.6062 14.6313L75.9999 14.375L75.4187 14.6813L71.9749 16.4625L72.5999 12.6313L72.7124 12.0063L72.2499 11.525L69.4874 8.80625L73.3374 8.25L73.9624 8.15625L74.2499 7.53125L75.9999 4.075ZM75.9999 1.25L73.1562 7.0125L66.7999 7.93125L71.3999 12.4188L70.3124 18.75L75.9999 15.7625L81.6874 18.75L80.5999 12.4188L85.1999 7.9375L78.8437 7.0125L75.9999 1.25Z" fill="url(#paint0_linear)"/>
<path d="M97.9999 4.075L99.7249 7.5625L100.012 8.1875L100.637 8.28125L104.487 8.8375L101.75 11.525L101.281 11.9813L101.394 12.6063L102.05 16.4375L98.6062 14.6313L97.9999 14.375L97.4187 14.6813L93.9749 16.4625L94.5999 12.6313L94.7124 12.0063L94.2499 11.525L91.4874 8.80625L95.3374 8.25L95.9624 8.15625L96.2499 7.53125L97.9999 4.075ZM97.9999 1.25L95.1562 7.0125L88.7999 7.93125L93.3999 12.4188L92.3124 18.75L97.9999 15.7625L103.687 18.75L102.6 12.4188L107.2 7.9375L100.844 7.0125L97.9999 1.25Z" fill="url(#paint1_linear)"/>
<path d="M31.9999 5.075L33.7249 8.5625L34.0124 9.1875L34.6374 9.28125L38.4874 9.8375L35.7499 12.525L35.2812 12.9813L35.3937 13.6063L36.0499 17.4375L32.6062 15.6313L31.9999 15.375L31.4187 15.6813L27.9749 17.4625L28.5999 13.6313L28.7124 13.0063L28.2499 12.525L25.4874 9.80625L29.3374 9.25L29.9624 9.15625L30.2499 8.53125L31.9999 5.075ZM31.9999 2.25L29.1562 8.0125L22.7999 8.93125L27.3999 13.4188L26.3124 19.75L31.9999 16.7625L37.6874 19.75L36.5999 13.4188L41.1999 8.9375L34.8437 8.0125L31.9999 2.25Z" fill="url(#paint2_linear)"/>
<path d="M9.99993 5.075L11.7249 8.5625L12.0124 9.1875L12.6374 9.28125L16.4874 9.8375L13.7499 12.525L13.2812 12.9813L13.3937 13.6063L14.0499 17.4375L10.6062 15.6313L9.99993 15.375L9.41868 15.6813L5.97493 17.4625L6.59993 13.6313L6.71243 13.0063L6.24993 12.525L3.48743 9.80625L7.33743 9.25L7.96243 9.15625L8.24993 8.53125L9.99993 5.075ZM9.99993 2.25L7.15618 8.0125L0.799927 8.93125L5.39993 13.4188L4.31243 19.75L9.99993 16.7625L15.6874 19.75L14.5999 13.4188L19.1999 8.9375L12.8437 8.0125L9.99993 2.25Z" fill="url(#paint3_linear)"/>
<path d="M53.9999 5.075L55.7249 8.5625L56.0124 9.1875L56.6374 9.28125L60.4874 9.8375L57.7499 12.525L57.2812 12.9813L57.3937 13.6063L58.0499 17.4375L54.6062 15.6313L53.9999 15.375L53.4187 15.6813L49.9749 17.4625L50.5999 13.6313L50.7124 13.0063L50.2499 12.525L47.4874 9.80625L51.3374 9.25L51.9624 9.15625L52.2499 8.53125L53.9999 5.075ZM53.9999 2.25L51.1562 8.0125L44.7999 8.93125L49.3999 13.4188L48.3124 19.75L53.9999 16.7625L59.6874 19.75L58.5999 13.4188L63.1999 8.9375L56.8437 8.0125L53.9999 2.25Z" fill="url(#paint4_linear)"/>
<defs>
<linearGradient id="paint0_linear" x1="75.9999" y1="1.25" x2="75.9999" y2="18.75" gradientUnits="userSpaceOnUse">
<stop stop-color="#57001E"/>
<stop offset="1" stop-color="#2E1665"/>
</linearGradient>
<linearGradient id="paint1_linear" x1="97.9999" y1="1.25" x2="97.9999" y2="18.75" gradientUnits="userSpaceOnUse">
<stop stop-color="#57001E"/>
<stop offset="1" stop-color="#2E1665"/>
</linearGradient>
<linearGradient id="paint2_linear" x1="31.9999" y1="2.25" x2="31.9999" y2="19.75" gradientUnits="userSpaceOnUse">
<stop stop-color="#57001E"/>
<stop offset="1" stop-color="#2E1665"/>
</linearGradient>
<linearGradient id="paint3_linear" x1="9.99993" y1="2.25" x2="9.99993" y2="19.75" gradientUnits="userSpaceOnUse">
<stop stop-color="#57001E"/>
<stop offset="1" stop-color="#2E1665"/>
</linearGradient>
<linearGradient id="paint4_linear" x1="53.9999" y1="2.25" x2="53.9999" y2="19.75" gradientUnits="userSpaceOnUse">
<stop stop-color="#57001E"/>
<stop offset="1" stop-color="#2E1665"/>
</linearGradient>
</defs>
</svg>
